<mxfile host="65bd71144e" pages="6">
    <diagram id="VxUMSoSobP9v7EFV65V0" name="get list data (vehicle)">
        <mxGraphModel dx="1924" dy="650" grid="1" gridSize="10" guides="1" tooltips="1" connect="1" arrows="1" fold="1" page="1" pageScale="1" pageWidth="850" pageHeight="1100" math="0" shadow="0">
            <root>
                <mxCell id="0"/>
                <mxCell id="1" parent="0"/>
                <mxCell id="FGy4mryRZU1FJrJVoHDt-1" value="Get data (vehicle)" style="text;html=1;align=center;verticalAlign=middle;resizable=0;points=[];autosize=1;strokeColor=none;fillColor=none;" parent="1" vertex="1">
                    <mxGeometry x="15" y="20" width="110" height="20" as="geometry"/>
                </mxCell>
                <mxCell id="FGy4mryRZU1FJrJVoHDt-5" style="edgeStyle=orthogonalEdgeStyle;rounded=0;orthogonalLoop=1;jettySize=auto;html=1;" parent="1" source="FGy4mryRZU1FJrJVoHDt-2" target="FGy4mryRZU1FJrJVoHDt-4" edge="1">
                    <mxGeometry relative="1" as="geometry"/>
                </mxCell>
                <mxCell id="FGy4mryRZU1FJrJVoHDt-2" value="START" style="ellipse;whiteSpace=wrap;html=1;" parent="1" vertex="1">
                    <mxGeometry x="140" y="20" width="120" height="80" as="geometry"/>
                </mxCell>
                <mxCell id="s4J_LrY5ywz_mOtSPrlo-5" style="edgeStyle=orthogonalEdgeStyle;rounded=0;orthogonalLoop=1;jettySize=auto;html=1;" parent="1" source="FGy4mryRZU1FJrJVoHDt-4" target="s4J_LrY5ywz_mOtSPrlo-4" edge="1">
                    <mxGeometry relative="1" as="geometry"/>
                </mxCell>
                <mxCell id="FGy4mryRZU1FJrJVoHDt-4" value="INPUT:&lt;br&gt;search, isAvailable,&lt;br&gt;hasPrepayment" style="shape=parallelogram;perimeter=parallelogramPerimeter;whiteSpace=wrap;html=1;fixedSize=1;" parent="1" vertex="1">
                    <mxGeometry x="130" y="140" width="140" height="60" as="geometry"/>
                </mxCell>
                <mxCell id="FGy4mryRZU1FJrJVoHDt-13" value="TRUE" style="edgeStyle=orthogonalEdgeStyle;rounded=0;orthogonalLoop=1;jettySize=auto;html=1;" parent="1" source="s4J_LrY5ywz_mOtSPrlo-43" target="FGy4mryRZU1FJrJVoHDt-12" edge="1">
                    <mxGeometry relative="1" as="geometry">
                        <mxPoint x="570" y="390" as="sourcePoint"/>
                    </mxGeometry>
                </mxCell>
                <mxCell id="s4J_LrY5ywz_mOtSPrlo-8" style="edgeStyle=orthogonalEdgeStyle;rounded=0;orthogonalLoop=1;jettySize=auto;html=1;" parent="1" source="FGy4mryRZU1FJrJVoHDt-12" edge="1">
                    <mxGeometry relative="1" as="geometry">
                        <mxPoint x="485" y="337.5" as="targetPoint"/>
                    </mxGeometry>
                </mxCell>
                <mxCell id="FGy4mryRZU1FJrJVoHDt-12" value="search = ''" style="rounded=0;whiteSpace=wrap;html=1;" parent="1" vertex="1">
                    <mxGeometry x="510" y="470" width="120" height="60" as="geometry"/>
                </mxCell>
                <mxCell id="FGy4mryRZU1FJrJVoHDt-24" style="edgeStyle=orthogonalEdgeStyle;rounded=0;orthogonalLoop=1;jettySize=auto;html=1;" parent="1" source="FGy4mryRZU1FJrJVoHDt-20" target="FGy4mryRZU1FJrJVoHDt-23" edge="1">
                    <mxGeometry relative="1" as="geometry">
                        <mxPoint x="-136" y="650" as="targetPoint"/>
                    </mxGeometry>
                </mxCell>
                <mxCell id="FGy4mryRZU1FJrJVoHDt-20" value="offset = (page-1) * limit" style="rounded=0;whiteSpace=wrap;html=1;" parent="1" vertex="1">
                    <mxGeometry x="-461" y="590" width="120" height="60" as="geometry"/>
                </mxCell>
                <mxCell id="s4J_LrY5ywz_mOtSPrlo-62" style="edgeStyle=orthogonalEdgeStyle;rounded=0;orthogonalLoop=1;jettySize=auto;html=1;" parent="1" source="FGy4mryRZU1FJrJVoHDt-23" target="s4J_LrY5ywz_mOtSPrlo-61" edge="1">
                    <mxGeometry relative="1" as="geometry"/>
                </mxCell>
                <mxCell id="FGy4mryRZU1FJrJVoHDt-23" value="get data count from model (pass search)" style="rounded=0;whiteSpace=wrap;html=1;" parent="1" vertex="1">
                    <mxGeometry x="-255" y="590" width="120" height="60" as="geometry"/>
                </mxCell>
                <mxCell id="FGy4mryRZU1FJrJVoHDt-31" value="FALSE" style="edgeStyle=orthogonalEdgeStyle;rounded=0;orthogonalLoop=1;jettySize=auto;html=1;" parent="1" source="FGy4mryRZU1FJrJVoHDt-27" target="FGy4mryRZU1FJrJVoHDt-30" edge="1">
                    <mxGeometry relative="1" as="geometry"/>
                </mxCell>
                <mxCell id="FGy4mryRZU1FJrJVoHDt-33" value="TRUE" style="edgeStyle=orthogonalEdgeStyle;rounded=0;orthogonalLoop=1;jettySize=auto;html=1;" parent="1" source="FGy4mryRZU1FJrJVoHDt-27" target="FGy4mryRZU1FJrJVoHDt-32" edge="1">
                    <mxGeometry relative="1" as="geometry"/>
                </mxCell>
                <mxCell id="FGy4mryRZU1FJrJVoHDt-27" value="data count &amp;gt; 0" style="rhombus;whiteSpace=wrap;html=1;" parent="1" vertex="1">
                    <mxGeometry x="150" y="570" width="100" height="100" as="geometry"/>
                </mxCell>
                <mxCell id="FGy4mryRZU1FJrJVoHDt-43" style="edgeStyle=orthogonalEdgeStyle;rounded=0;orthogonalLoop=1;jettySize=auto;html=1;" parent="1" source="FGy4mryRZU1FJrJVoHDt-30" target="FGy4mryRZU1FJrJVoHDt-40" edge="1">
                    <mxGeometry relative="1" as="geometry"/>
                </mxCell>
                <mxCell id="FGy4mryRZU1FJrJVoHDt-30" value="OUTPUT:&lt;br&gt;'data not found'" style="shape=parallelogram;perimeter=parallelogramPerimeter;whiteSpace=wrap;html=1;fixedSize=1;" parent="1" vertex="1">
                    <mxGeometry x="320" y="590" width="120" height="60" as="geometry"/>
                </mxCell>
                <mxCell id="s4J_LrY5ywz_mOtSPrlo-2" style="edgeStyle=orthogonalEdgeStyle;rounded=0;orthogonalLoop=1;jettySize=auto;html=1;" parent="1" source="FGy4mryRZU1FJrJVoHDt-32" target="s4J_LrY5ywz_mOtSPrlo-1" edge="1">
                    <mxGeometry relative="1" as="geometry"/>
                </mxCell>
                <mxCell id="FGy4mryRZU1FJrJVoHDt-32" value="MODEL GET data vehicles (&lt;span style=&quot;font-family: &amp;#34;helvetica&amp;#34;&quot;&gt;dataQuery&lt;/span&gt;)" style="rounded=0;whiteSpace=wrap;html=1;" parent="1" vertex="1">
                    <mxGeometry x="140" y="720" width="120" height="60" as="geometry"/>
                </mxCell>
                <mxCell id="FGy4mryRZU1FJrJVoHDt-38" value="FALSE" style="edgeStyle=orthogonalEdgeStyle;rounded=0;orthogonalLoop=1;jettySize=auto;html=1;entryX=0;entryY=0.5;entryDx=0;entryDy=0;" parent="1" source="FGy4mryRZU1FJrJVoHDt-34" target="FGy4mryRZU1FJrJVoHDt-37" edge="1">
                    <mxGeometry relative="1" as="geometry"/>
                </mxCell>
                <mxCell id="FGy4mryRZU1FJrJVoHDt-39" value="TRUE" style="edgeStyle=orthogonalEdgeStyle;rounded=0;orthogonalLoop=1;jettySize=auto;html=1;" parent="1" source="FGy4mryRZU1FJrJVoHDt-34" target="FGy4mryRZU1FJrJVoHDt-36" edge="1">
                    <mxGeometry relative="1" as="geometry"/>
                </mxCell>
                <mxCell id="FGy4mryRZU1FJrJVoHDt-34" value="data.length &amp;gt; 0" style="rhombus;whiteSpace=wrap;html=1;" parent="1" vertex="1">
                    <mxGeometry x="320" y="820" width="100" height="100" as="geometry"/>
                </mxCell>
                <mxCell id="FGy4mryRZU1FJrJVoHDt-42" style="edgeStyle=orthogonalEdgeStyle;rounded=0;orthogonalLoop=1;jettySize=auto;html=1;" parent="1" source="FGy4mryRZU1FJrJVoHDt-36" target="FGy4mryRZU1FJrJVoHDt-40" edge="1">
                    <mxGeometry relative="1" as="geometry"/>
                </mxCell>
                <mxCell id="FGy4mryRZU1FJrJVoHDt-36" value="OUTPUT:&lt;br&gt;data" style="shape=parallelogram;perimeter=parallelogramPerimeter;whiteSpace=wrap;html=1;fixedSize=1;" parent="1" vertex="1">
                    <mxGeometry x="310" y="970" width="120" height="60" as="geometry"/>
                </mxCell>
                <mxCell id="FGy4mryRZU1FJrJVoHDt-41" style="edgeStyle=orthogonalEdgeStyle;rounded=0;orthogonalLoop=1;jettySize=auto;html=1;" parent="1" source="FGy4mryRZU1FJrJVoHDt-37" target="FGy4mryRZU1FJrJVoHDt-40" edge="1">
                    <mxGeometry relative="1" as="geometry"/>
                </mxCell>
                <mxCell id="FGy4mryRZU1FJrJVoHDt-37" value="OUTPUT:&lt;br&gt;'data not found'" style="shape=parallelogram;perimeter=parallelogramPerimeter;whiteSpace=wrap;html=1;fixedSize=1;" parent="1" vertex="1">
                    <mxGeometry x="510" y="840" width="120" height="60" as="geometry"/>
                </mxCell>
                <mxCell id="FGy4mryRZU1FJrJVoHDt-40" value="END" style="ellipse;whiteSpace=wrap;html=1;" parent="1" vertex="1">
                    <mxGeometry x="710" y="830" width="120" height="80" as="geometry"/>
                </mxCell>
                <mxCell id="s4J_LrY5ywz_mOtSPrlo-3" style="edgeStyle=orthogonalEdgeStyle;rounded=0;orthogonalLoop=1;jettySize=auto;html=1;" parent="1" source="s4J_LrY5ywz_mOtSPrlo-1" target="FGy4mryRZU1FJrJVoHDt-34" edge="1">
                    <mxGeometry relative="1" as="geometry"/>
                </mxCell>
                <mxCell id="s4J_LrY5ywz_mOtSPrlo-1" value="DB" style="shape=cylinder3;whiteSpace=wrap;html=1;boundedLbl=1;backgroundOutline=1;size=15;" parent="1" vertex="1">
                    <mxGeometry x="170" y="830" width="60" height="80" as="geometry"/>
                </mxCell>
                <mxCell id="s4J_LrY5ywz_mOtSPrlo-7" style="edgeStyle=orthogonalEdgeStyle;rounded=0;orthogonalLoop=1;jettySize=auto;html=1;" parent="1" source="s4J_LrY5ywz_mOtSPrlo-4" target="s4J_LrY5ywz_mOtSPrlo-6" edge="1">
                    <mxGeometry relative="1" as="geometry"/>
                </mxCell>
                <mxCell id="s4J_LrY5ywz_mOtSPrlo-4" value="INPUT:&lt;br&gt;sort, order" style="shape=parallelogram;perimeter=parallelogramPerimeter;whiteSpace=wrap;html=1;fixedSize=1;" parent="1" vertex="1">
                    <mxGeometry x="330" y="140" width="120" height="60" as="geometry"/>
                </mxCell>
                <mxCell id="s4J_LrY5ywz_mOtSPrlo-27" style="edgeStyle=orthogonalEdgeStyle;rounded=0;orthogonalLoop=1;jettySize=auto;html=1;" parent="1" source="s4J_LrY5ywz_mOtSPrlo-6" edge="1">
                    <mxGeometry relative="1" as="geometry">
                        <mxPoint x="570" y="285" as="targetPoint"/>
                    </mxGeometry>
                </mxCell>
                <mxCell id="s4J_LrY5ywz_mOtSPrlo-6" value="INPUT:&lt;br&gt;page, limit" style="shape=parallelogram;perimeter=parallelogramPerimeter;whiteSpace=wrap;html=1;fixedSize=1;" parent="1" vertex="1">
                    <mxGeometry x="510" y="140" width="120" height="60" as="geometry"/>
                </mxCell>
                <mxCell id="s4J_LrY5ywz_mOtSPrlo-15" style="edgeStyle=orthogonalEdgeStyle;rounded=0;orthogonalLoop=1;jettySize=auto;html=1;entryX=1;entryY=0.5;entryDx=0;entryDy=0;" parent="1" source="s4J_LrY5ywz_mOtSPrlo-40" target="s4J_LrY5ywz_mOtSPrlo-22" edge="1">
                    <mxGeometry relative="1" as="geometry">
                        <mxPoint x="275" y="336.25" as="targetPoint"/>
                        <mxPoint x="320" y="323.75" as="sourcePoint"/>
                    </mxGeometry>
                </mxCell>
                <mxCell id="s4J_LrY5ywz_mOtSPrlo-18" style="edgeStyle=orthogonalEdgeStyle;rounded=0;orthogonalLoop=1;jettySize=auto;html=1;" parent="1" source="s4J_LrY5ywz_mOtSPrlo-19" edge="1">
                    <mxGeometry relative="1" as="geometry">
                        <mxPoint x="295" y="336.25" as="targetPoint"/>
                    </mxGeometry>
                </mxCell>
                <mxCell id="s4J_LrY5ywz_mOtSPrlo-19" value="isAvailable = ''" style="rounded=0;whiteSpace=wrap;html=1;" parent="1" vertex="1">
                    <mxGeometry x="320" y="468.75" width="120" height="60" as="geometry"/>
                </mxCell>
                <mxCell id="s4J_LrY5ywz_mOtSPrlo-21" value="TRUE" style="edgeStyle=orthogonalEdgeStyle;rounded=0;orthogonalLoop=1;jettySize=auto;html=1;" parent="1" source="s4J_LrY5ywz_mOtSPrlo-22" target="s4J_LrY5ywz_mOtSPrlo-24" edge="1">
                    <mxGeometry relative="1" as="geometry">
                        <mxPoint x="192.5" y="446.25" as="sourcePoint"/>
                    </mxGeometry>
                </mxCell>
                <mxCell id="s4J_LrY5ywz_mOtSPrlo-32" style="edgeStyle=orthogonalEdgeStyle;rounded=0;orthogonalLoop=1;jettySize=auto;html=1;" parent="1" source="s4J_LrY5ywz_mOtSPrlo-22" target="s4J_LrY5ywz_mOtSPrlo-42" edge="1">
                    <mxGeometry relative="1" as="geometry">
                        <mxPoint x="70" y="336.25" as="targetPoint"/>
                    </mxGeometry>
                </mxCell>
                <mxCell id="s4J_LrY5ywz_mOtSPrlo-22" value="hasPrepayment == undefined&amp;nbsp;&lt;br&gt;||&lt;br&gt;hasPrepayment IN&lt;br&gt;['0', '1']" style="rhombus;whiteSpace=wrap;html=1;" parent="1" vertex="1">
                    <mxGeometry x="115" y="258.75" width="155" height="155" as="geometry"/>
                </mxCell>
                <mxCell id="s4J_LrY5ywz_mOtSPrlo-23" style="edgeStyle=orthogonalEdgeStyle;rounded=0;orthogonalLoop=1;jettySize=auto;html=1;" parent="1" source="s4J_LrY5ywz_mOtSPrlo-24" edge="1">
                    <mxGeometry relative="1" as="geometry">
                        <mxPoint x="110" y="336.25" as="targetPoint"/>
                    </mxGeometry>
                </mxCell>
                <mxCell id="s4J_LrY5ywz_mOtSPrlo-24" value="hasPrepayment = ''" style="rounded=0;whiteSpace=wrap;html=1;" parent="1" vertex="1">
                    <mxGeometry x="132.5" y="468.75" width="120" height="60" as="geometry"/>
                </mxCell>
                <mxCell id="s4J_LrY5ywz_mOtSPrlo-39" value="TRUE" style="edgeStyle=orthogonalEdgeStyle;rounded=0;orthogonalLoop=1;jettySize=auto;html=1;" parent="1" source="s4J_LrY5ywz_mOtSPrlo-42" target="s4J_LrY5ywz_mOtSPrlo-31" edge="1">
                    <mxGeometry relative="1" as="geometry">
                        <mxPoint x="5" y="391.25" as="sourcePoint"/>
                    </mxGeometry>
                </mxCell>
                <mxCell id="s4J_LrY5ywz_mOtSPrlo-30" style="edgeStyle=orthogonalEdgeStyle;rounded=0;orthogonalLoop=1;jettySize=auto;html=1;" parent="1" source="s4J_LrY5ywz_mOtSPrlo-31" edge="1">
                    <mxGeometry relative="1" as="geometry">
                        <mxPoint x="-90" y="336" as="targetPoint"/>
                        <Array as="points">
                            <mxPoint x="-90" y="499"/>
                            <mxPoint x="-90" y="336"/>
                        </Array>
                    </mxGeometry>
                </mxCell>
                <mxCell id="s4J_LrY5ywz_mOtSPrlo-31" value="sort = 'name'" style="rounded=0;whiteSpace=wrap;html=1;" parent="1" vertex="1">
                    <mxGeometry x="-55" y="468.75" width="120" height="60" as="geometry"/>
                </mxCell>
                <mxCell id="s4J_LrY5ywz_mOtSPrlo-41" value="TRUE" style="edgeStyle=orthogonalEdgeStyle;rounded=0;orthogonalLoop=1;jettySize=auto;html=1;" parent="1" source="s4J_LrY5ywz_mOtSPrlo-40" target="s4J_LrY5ywz_mOtSPrlo-19" edge="1">
                    <mxGeometry relative="1" as="geometry">
                        <mxPoint x="380" y="438.75" as="sourcePoint"/>
                    </mxGeometry>
                </mxCell>
                <mxCell id="s4J_LrY5ywz_mOtSPrlo-40" value="isAvailable == &lt;br&gt;undefined&amp;nbsp;&lt;br&gt;||&lt;br&gt;isAvailable&amp;nbsp;IN ['0', '1']" style="rhombus;whiteSpace=wrap;html=1;" parent="1" vertex="1">
                    <mxGeometry x="302.5" y="257.5" width="155" height="157.5" as="geometry"/>
                </mxCell>
                <mxCell id="s4J_LrY5ywz_mOtSPrlo-50" value="" style="edgeStyle=orthogonalEdgeStyle;rounded=0;orthogonalLoop=1;jettySize=auto;html=1;" parent="1" source="s4J_LrY5ywz_mOtSPrlo-42" target="s4J_LrY5ywz_mOtSPrlo-49" edge="1">
                    <mxGeometry relative="1" as="geometry"/>
                </mxCell>
                <mxCell id="s4J_LrY5ywz_mOtSPrlo-42" value="sort == undefined&amp;nbsp;&lt;br&gt;||&lt;br&gt;sort IN ['color', 'price', 'capacity', 'stock', 'category']" style="rhombus;whiteSpace=wrap;html=1;" parent="1" vertex="1">
                    <mxGeometry x="-73.75" y="256.88" width="157.5" height="158.75" as="geometry"/>
                </mxCell>
                <mxCell id="s4J_LrY5ywz_mOtSPrlo-44" style="edgeStyle=orthogonalEdgeStyle;rounded=0;orthogonalLoop=1;jettySize=auto;html=1;" parent="1" source="s4J_LrY5ywz_mOtSPrlo-43" target="s4J_LrY5ywz_mOtSPrlo-40" edge="1">
                    <mxGeometry relative="1" as="geometry"/>
                </mxCell>
                <mxCell id="s4J_LrY5ywz_mOtSPrlo-43" value="search == undefined" style="rhombus;whiteSpace=wrap;html=1;" parent="1" vertex="1">
                    <mxGeometry x="492.5" y="257.5" width="155" height="157.5" as="geometry"/>
                </mxCell>
                <mxCell id="s4J_LrY5ywz_mOtSPrlo-45" value="TRUE" style="edgeStyle=orthogonalEdgeStyle;rounded=0;orthogonalLoop=1;jettySize=auto;html=1;" parent="1" source="s4J_LrY5ywz_mOtSPrlo-49" target="s4J_LrY5ywz_mOtSPrlo-47" edge="1">
                    <mxGeometry relative="1" as="geometry">
                        <mxPoint x="-195" y="391.25" as="sourcePoint"/>
                    </mxGeometry>
                </mxCell>
                <mxCell id="s4J_LrY5ywz_mOtSPrlo-46" style="edgeStyle=orthogonalEdgeStyle;rounded=0;orthogonalLoop=1;jettySize=auto;html=1;" parent="1" source="s4J_LrY5ywz_mOtSPrlo-47" edge="1">
                    <mxGeometry relative="1" as="geometry">
                        <mxPoint x="-290" y="336" as="targetPoint"/>
                    </mxGeometry>
                </mxCell>
                <mxCell id="s4J_LrY5ywz_mOtSPrlo-47" value="sort = 'desc'" style="rounded=0;whiteSpace=wrap;html=1;" parent="1" vertex="1">
                    <mxGeometry x="-255" y="468.75" width="120" height="60" as="geometry"/>
                </mxCell>
                <mxCell id="s4J_LrY5ywz_mOtSPrlo-48" style="edgeStyle=orthogonalEdgeStyle;rounded=0;orthogonalLoop=1;jettySize=auto;html=1;" parent="1" target="s4J_LrY5ywz_mOtSPrlo-55" edge="1">
                    <mxGeometry relative="1" as="geometry">
                        <mxPoint x="-250" y="335.75" as="sourcePoint"/>
                        <mxPoint x="-320" y="335.75" as="targetPoint"/>
                    </mxGeometry>
                </mxCell>
                <mxCell id="s4J_LrY5ywz_mOtSPrlo-49" value="order == undefined&amp;nbsp;&lt;br&gt;||&lt;br&gt;order !==&amp;nbsp; 'asc'" style="rhombus;whiteSpace=wrap;html=1;" parent="1" vertex="1">
                    <mxGeometry x="-273.75" y="256.88" width="157.5" height="158.75" as="geometry"/>
                </mxCell>
                <mxCell id="s4J_LrY5ywz_mOtSPrlo-51" value="TRUE" style="edgeStyle=orthogonalEdgeStyle;rounded=0;orthogonalLoop=1;jettySize=auto;html=1;" parent="1" source="s4J_LrY5ywz_mOtSPrlo-55" target="s4J_LrY5ywz_mOtSPrlo-53" edge="1">
                    <mxGeometry relative="1" as="geometry">
                        <mxPoint x="-402" y="391.25" as="sourcePoint"/>
                    </mxGeometry>
                </mxCell>
                <mxCell id="s4J_LrY5ywz_mOtSPrlo-52" style="edgeStyle=orthogonalEdgeStyle;rounded=0;orthogonalLoop=1;jettySize=auto;html=1;" parent="1" source="s4J_LrY5ywz_mOtSPrlo-53" edge="1">
                    <mxGeometry relative="1" as="geometry">
                        <mxPoint x="-497" y="336" as="targetPoint"/>
                    </mxGeometry>
                </mxCell>
                <mxCell id="s4J_LrY5ywz_mOtSPrlo-53" value="page = 1" style="rounded=0;whiteSpace=wrap;html=1;" parent="1" vertex="1">
                    <mxGeometry x="-462" y="468.75" width="120" height="60" as="geometry"/>
                </mxCell>
                <mxCell id="s4J_LrY5ywz_mOtSPrlo-54" style="edgeStyle=orthogonalEdgeStyle;rounded=0;orthogonalLoop=1;jettySize=auto;html=1;" parent="1" edge="1">
                    <mxGeometry relative="1" as="geometry">
                        <mxPoint x="-457" y="335.75" as="sourcePoint"/>
                        <mxPoint x="-527" y="335.75" as="targetPoint"/>
                    </mxGeometry>
                </mxCell>
                <mxCell id="s4J_LrY5ywz_mOtSPrlo-55" value="page == undefined&amp;nbsp;&lt;br&gt;||&lt;br&gt;page &amp;lt; 1" style="rhombus;whiteSpace=wrap;html=1;" parent="1" vertex="1">
                    <mxGeometry x="-480.75" y="256.88" width="157.5" height="158.75" as="geometry"/>
                </mxCell>
                <mxCell id="s4J_LrY5ywz_mOtSPrlo-56" value="TRUE" style="edgeStyle=orthogonalEdgeStyle;rounded=0;orthogonalLoop=1;jettySize=auto;html=1;" parent="1" source="s4J_LrY5ywz_mOtSPrlo-60" target="s4J_LrY5ywz_mOtSPrlo-58" edge="1">
                    <mxGeometry relative="1" as="geometry">
                        <mxPoint x="-605" y="391.25" as="sourcePoint"/>
                    </mxGeometry>
                </mxCell>
                <mxCell id="s4J_LrY5ywz_mOtSPrlo-57" style="edgeStyle=orthogonalEdgeStyle;rounded=0;orthogonalLoop=1;jettySize=auto;html=1;" parent="1" source="s4J_LrY5ywz_mOtSPrlo-58" edge="1">
                    <mxGeometry relative="1" as="geometry">
                        <mxPoint x="-700" y="336" as="targetPoint"/>
                    </mxGeometry>
                </mxCell>
                <mxCell id="s4J_LrY5ywz_mOtSPrlo-58" value="limit = 5" style="rounded=0;whiteSpace=wrap;html=1;" parent="1" vertex="1">
                    <mxGeometry x="-665" y="468.75" width="120" height="60" as="geometry"/>
                </mxCell>
                <mxCell id="s4J_LrY5ywz_mOtSPrlo-65" style="edgeStyle=orthogonalEdgeStyle;rounded=0;orthogonalLoop=1;jettySize=auto;html=1;" parent="1" source="s4J_LrY5ywz_mOtSPrlo-60" target="s4J_LrY5ywz_mOtSPrlo-64" edge="1">
                    <mxGeometry relative="1" as="geometry">
                        <Array as="points">
                            <mxPoint x="-750" y="336"/>
                            <mxPoint x="-750" y="620"/>
                        </Array>
                    </mxGeometry>
                </mxCell>
                <mxCell id="s4J_LrY5ywz_mOtSPrlo-60" value="limit == undefined&amp;nbsp;&lt;br&gt;||&lt;br&gt;limit &amp;lt; 1" style="rhombus;whiteSpace=wrap;html=1;" parent="1" vertex="1">
                    <mxGeometry x="-683.75" y="256.88" width="157.5" height="158.75" as="geometry"/>
                </mxCell>
                <mxCell id="s4J_LrY5ywz_mOtSPrlo-63" style="edgeStyle=orthogonalEdgeStyle;rounded=0;orthogonalLoop=1;jettySize=auto;html=1;" parent="1" source="s4J_LrY5ywz_mOtSPrlo-61" target="FGy4mryRZU1FJrJVoHDt-27" edge="1">
                    <mxGeometry relative="1" as="geometry"/>
                </mxCell>
                <mxCell id="s4J_LrY5ywz_mOtSPrlo-61" value="DB" style="shape=cylinder3;whiteSpace=wrap;html=1;boundedLbl=1;backgroundOutline=1;size=15;" parent="1" vertex="1">
                    <mxGeometry x="-25" y="580" width="60" height="80" as="geometry"/>
                </mxCell>
                <mxCell id="s4J_LrY5ywz_mOtSPrlo-66" style="edgeStyle=orthogonalEdgeStyle;rounded=0;orthogonalLoop=1;jettySize=auto;html=1;" parent="1" source="s4J_LrY5ywz_mOtSPrlo-64" target="FGy4mryRZU1FJrJVoHDt-20" edge="1">
                    <mxGeometry relative="1" as="geometry"/>
                </mxCell>
                <mxCell id="s4J_LrY5ywz_mOtSPrlo-64" value="&lt;span style=&quot;font-family: &amp;#34;helvetica&amp;#34; ; font-size: 12px ; font-style: normal ; font-weight: 400 ; letter-spacing: normal ; text-align: center ; text-indent: 0px ; text-transform: none ; word-spacing: 0px ; display: inline ; float: none&quot;&gt;&lt;font color=&quot;#ffffff&quot;&gt;dataQuery= {search, isAvailable, hasPrepayment, sort, order, limit, offset}&lt;/font&gt;&lt;/span&gt;" style="rounded=0;whiteSpace=wrap;html=1;" parent="1" vertex="1">
                    <mxGeometry x="-696" y="590" width="160" height="60" as="geometry"/>
                </mxCell>
            </root>
        </mxGraphModel>
    </diagram>
    <diagram id="4IHd9H4bchxdwIQ7rmn_" name="Insert data (vehicle)">
        <mxGraphModel dx="1924" dy="650" grid="1" gridSize="10" guides="1" tooltips="1" connect="1" arrows="1" fold="1" page="1" pageScale="1" pageWidth="850" pageHeight="1100" math="0" shadow="0">
            <root>
                <mxCell id="60xZTS15K_yhB3AreUBm-0"/>
                <mxCell id="60xZTS15K_yhB3AreUBm-1" parent="60xZTS15K_yhB3AreUBm-0"/>
                <mxCell id="60xZTS15K_yhB3AreUBm-2" value="Create data (vehicle)" style="text;html=1;align=center;verticalAlign=middle;resizable=0;points=[];autosize=1;strokeColor=none;fillColor=none;" parent="60xZTS15K_yhB3AreUBm-1" vertex="1">
                    <mxGeometry y="10" width="130" height="20" as="geometry"/>
                </mxCell>
                <mxCell id="60xZTS15K_yhB3AreUBm-8" style="edgeStyle=orthogonalEdgeStyle;rounded=0;orthogonalLoop=1;jettySize=auto;html=1;" parent="60xZTS15K_yhB3AreUBm-1" source="60xZTS15K_yhB3AreUBm-3" target="60xZTS15K_yhB3AreUBm-4" edge="1">
                    <mxGeometry relative="1" as="geometry"/>
                </mxCell>
                <mxCell id="60xZTS15K_yhB3AreUBm-3" value="START" style="ellipse;whiteSpace=wrap;html=1;" parent="60xZTS15K_yhB3AreUBm-1" vertex="1">
                    <mxGeometry x="150" y="10" width="120" height="80" as="geometry"/>
                </mxCell>
                <mxCell id="60xZTS15K_yhB3AreUBm-9" style="edgeStyle=orthogonalEdgeStyle;rounded=0;orthogonalLoop=1;jettySize=auto;html=1;" parent="60xZTS15K_yhB3AreUBm-1" source="60xZTS15K_yhB3AreUBm-4" target="60xZTS15K_yhB3AreUBm-5" edge="1">
                    <mxGeometry relative="1" as="geometry"/>
                </mxCell>
                <mxCell id="60xZTS15K_yhB3AreUBm-4" value="INPUT:&lt;br&gt;name, color, &lt;br&gt;location" style="shape=parallelogram;perimeter=parallelogramPerimeter;whiteSpace=wrap;html=1;fixedSize=1;" parent="60xZTS15K_yhB3AreUBm-1" vertex="1">
                    <mxGeometry x="150" y="140" width="120" height="60" as="geometry"/>
                </mxCell>
                <mxCell id="60xZTS15K_yhB3AreUBm-10" style="edgeStyle=orthogonalEdgeStyle;rounded=0;orthogonalLoop=1;jettySize=auto;html=1;" parent="60xZTS15K_yhB3AreUBm-1" source="60xZTS15K_yhB3AreUBm-5" target="60xZTS15K_yhB3AreUBm-6" edge="1">
                    <mxGeometry relative="1" as="geometry"/>
                </mxCell>
                <mxCell id="60xZTS15K_yhB3AreUBm-5" value="INPUT:&lt;br&gt;id_category, stock&lt;br&gt;price, capacity" style="shape=parallelogram;perimeter=parallelogramPerimeter;whiteSpace=wrap;html=1;fixedSize=1;" parent="60xZTS15K_yhB3AreUBm-1" vertex="1">
                    <mxGeometry x="320" y="140" width="120" height="60" as="geometry"/>
                </mxCell>
                <mxCell id="60xZTS15K_yhB3AreUBm-11" style="edgeStyle=orthogonalEdgeStyle;rounded=0;orthogonalLoop=1;jettySize=auto;html=1;" parent="60xZTS15K_yhB3AreUBm-1" source="60xZTS15K_yhB3AreUBm-6" target="60xZTS15K_yhB3AreUBm-7" edge="1">
                    <mxGeometry relative="1" as="geometry"/>
                </mxCell>
                <mxCell id="60xZTS15K_yhB3AreUBm-6" value="INPUT:&lt;br&gt;is_available,&amp;nbsp;&lt;br&gt;has_prepayment" style="shape=parallelogram;perimeter=parallelogramPerimeter;whiteSpace=wrap;html=1;fixedSize=1;" parent="60xZTS15K_yhB3AreUBm-1" vertex="1">
                    <mxGeometry x="490" y="140" width="120" height="60" as="geometry"/>
                </mxCell>
                <mxCell id="60xZTS15K_yhB3AreUBm-19" style="edgeStyle=orthogonalEdgeStyle;rounded=0;orthogonalLoop=1;jettySize=auto;html=1;" parent="60xZTS15K_yhB3AreUBm-1" source="60xZTS15K_yhB3AreUBm-7" target="60xZTS15K_yhB3AreUBm-12" edge="1">
                    <mxGeometry relative="1" as="geometry"/>
                </mxCell>
                <mxCell id="60xZTS15K_yhB3AreUBm-7" value="INPUT:&lt;br&gt;reservation_deadline" style="shape=parallelogram;perimeter=parallelogramPerimeter;whiteSpace=wrap;html=1;fixedSize=1;" parent="60xZTS15K_yhB3AreUBm-1" vertex="1">
                    <mxGeometry x="660" y="140" width="150" height="60" as="geometry"/>
                </mxCell>
                <mxCell id="60xZTS15K_yhB3AreUBm-20" style="edgeStyle=orthogonalEdgeStyle;rounded=0;orthogonalLoop=1;jettySize=auto;html=1;" parent="60xZTS15K_yhB3AreUBm-1" source="60xZTS15K_yhB3AreUBm-12" target="60xZTS15K_yhB3AreUBm-14" edge="1">
                    <mxGeometry relative="1" as="geometry"/>
                </mxCell>
                <mxCell id="60xZTS15K_yhB3AreUBm-12" value="error = []" style="rounded=0;whiteSpace=wrap;html=1;" parent="60xZTS15K_yhB3AreUBm-1" vertex="1">
                    <mxGeometry x="675" y="250" width="120" height="60" as="geometry"/>
                </mxCell>
                <mxCell id="60xZTS15K_yhB3AreUBm-16" style="edgeStyle=orthogonalEdgeStyle;rounded=0;orthogonalLoop=1;jettySize=auto;html=1;" parent="60xZTS15K_yhB3AreUBm-1" source="60xZTS15K_yhB3AreUBm-14" target="60xZTS15K_yhB3AreUBm-15" edge="1">
                    <mxGeometry relative="1" as="geometry"/>
                </mxCell>
                <mxCell id="60xZTS15K_yhB3AreUBm-22" value="TRUE" style="edgeStyle=orthogonalEdgeStyle;rounded=0;orthogonalLoop=1;jettySize=auto;html=1;" parent="60xZTS15K_yhB3AreUBm-1" source="60xZTS15K_yhB3AreUBm-14" target="60xZTS15K_yhB3AreUBm-21" edge="1">
                    <mxGeometry relative="1" as="geometry"/>
                </mxCell>
                <mxCell id="60xZTS15K_yhB3AreUBm-14" value="name === undefined&lt;br&gt;name.length === 0&lt;br&gt;name.length &amp;gt; 100" style="rhombus;whiteSpace=wrap;html=1;" parent="60xZTS15K_yhB3AreUBm-1" vertex="1">
                    <mxGeometry x="650" y="360" width="170" height="180" as="geometry"/>
                </mxCell>
                <mxCell id="60xZTS15K_yhB3AreUBm-18" style="edgeStyle=orthogonalEdgeStyle;rounded=0;orthogonalLoop=1;jettySize=auto;html=1;" parent="60xZTS15K_yhB3AreUBm-1" source="60xZTS15K_yhB3AreUBm-15" target="60xZTS15K_yhB3AreUBm-17" edge="1">
                    <mxGeometry relative="1" as="geometry"/>
                </mxCell>
                <mxCell id="60xZTS15K_yhB3AreUBm-25" value="TRUE" style="edgeStyle=orthogonalEdgeStyle;rounded=0;orthogonalLoop=1;jettySize=auto;html=1;" parent="60xZTS15K_yhB3AreUBm-1" source="60xZTS15K_yhB3AreUBm-15" target="60xZTS15K_yhB3AreUBm-24" edge="1">
                    <mxGeometry relative="1" as="geometry"/>
                </mxCell>
                <mxCell id="60xZTS15K_yhB3AreUBm-15" value="color === undefined&lt;br&gt;color.length === 0&lt;br&gt;color.length &amp;gt; 30" style="rhombus;whiteSpace=wrap;html=1;" parent="60xZTS15K_yhB3AreUBm-1" vertex="1">
                    <mxGeometry x="435" y="360" width="170" height="180" as="geometry"/>
                </mxCell>
                <mxCell id="60xZTS15K_yhB3AreUBm-28" value="TRUE" style="edgeStyle=orthogonalEdgeStyle;rounded=0;orthogonalLoop=1;jettySize=auto;html=1;" parent="60xZTS15K_yhB3AreUBm-1" source="60xZTS15K_yhB3AreUBm-17" target="60xZTS15K_yhB3AreUBm-27" edge="1">
                    <mxGeometry relative="1" as="geometry"/>
                </mxCell>
                <mxCell id="60xZTS15K_yhB3AreUBm-30" style="edgeStyle=orthogonalEdgeStyle;rounded=0;orthogonalLoop=1;jettySize=auto;html=1;" parent="60xZTS15K_yhB3AreUBm-1" source="60xZTS15K_yhB3AreUBm-17" target="60xZTS15K_yhB3AreUBm-29" edge="1">
                    <mxGeometry relative="1" as="geometry"/>
                </mxCell>
                <mxCell id="60xZTS15K_yhB3AreUBm-17" value="location === undefined&lt;br&gt;OR&lt;br&gt;location.length === 0&lt;br&gt;OR&lt;br&gt;location.length &amp;gt; 100" style="rhombus;whiteSpace=wrap;html=1;" parent="60xZTS15K_yhB3AreUBm-1" vertex="1">
                    <mxGeometry x="220" y="360" width="170" height="180" as="geometry"/>
                </mxCell>
                <mxCell id="60xZTS15K_yhB3AreUBm-23" style="edgeStyle=orthogonalEdgeStyle;rounded=0;orthogonalLoop=1;jettySize=auto;html=1;" parent="60xZTS15K_yhB3AreUBm-1" source="60xZTS15K_yhB3AreUBm-21" edge="1">
                    <mxGeometry relative="1" as="geometry">
                        <mxPoint x="630" y="450" as="targetPoint"/>
                    </mxGeometry>
                </mxCell>
                <mxCell id="60xZTS15K_yhB3AreUBm-21" value="error.length = 'Input parameter nama salah!'" style="rounded=0;whiteSpace=wrap;html=1;" parent="60xZTS15K_yhB3AreUBm-1" vertex="1">
                    <mxGeometry x="675" y="590" width="120" height="60" as="geometry"/>
                </mxCell>
                <mxCell id="60xZTS15K_yhB3AreUBm-26" style="edgeStyle=orthogonalEdgeStyle;rounded=0;orthogonalLoop=1;jettySize=auto;html=1;" parent="60xZTS15K_yhB3AreUBm-1" source="60xZTS15K_yhB3AreUBm-24" edge="1">
                    <mxGeometry relative="1" as="geometry">
                        <mxPoint x="420" y="450" as="targetPoint"/>
                        <Array as="points">
                            <mxPoint x="420" y="640"/>
                        </Array>
                    </mxGeometry>
                </mxCell>
                <mxCell id="60xZTS15K_yhB3AreUBm-24" value="error.length = 'Input parameter warna salah!'" style="rounded=0;whiteSpace=wrap;html=1;" parent="60xZTS15K_yhB3AreUBm-1" vertex="1">
                    <mxGeometry x="460" y="590" width="120" height="60" as="geometry"/>
                </mxCell>
                <mxCell id="60xZTS15K_yhB3AreUBm-31" style="edgeStyle=orthogonalEdgeStyle;rounded=0;orthogonalLoop=1;jettySize=auto;html=1;" parent="60xZTS15K_yhB3AreUBm-1" source="60xZTS15K_yhB3AreUBm-27" edge="1">
                    <mxGeometry relative="1" as="geometry">
                        <mxPoint x="200" y="450" as="targetPoint"/>
                    </mxGeometry>
                </mxCell>
                <mxCell id="60xZTS15K_yhB3AreUBm-27" value="error.length = 'Input parameter warna salah!'" style="rounded=0;whiteSpace=wrap;html=1;" parent="60xZTS15K_yhB3AreUBm-1" vertex="1">
                    <mxGeometry x="245" y="590" width="120" height="60" as="geometry"/>
                </mxCell>
                <mxCell id="60xZTS15K_yhB3AreUBm-34" value="TRUE" style="edgeStyle=orthogonalEdgeStyle;rounded=0;orthogonalLoop=1;jettySize=auto;html=1;" parent="60xZTS15K_yhB3AreUBm-1" source="60xZTS15K_yhB3AreUBm-29" target="60xZTS15K_yhB3AreUBm-33" edge="1">
                    <mxGeometry relative="1" as="geometry"/>
                </mxCell>
                <mxCell id="60xZTS15K_yhB3AreUBm-36" style="edgeStyle=orthogonalEdgeStyle;rounded=0;orthogonalLoop=1;jettySize=auto;html=1;" parent="60xZTS15K_yhB3AreUBm-1" source="60xZTS15K_yhB3AreUBm-29" target="60xZTS15K_yhB3AreUBm-35" edge="1">
                    <mxGeometry relative="1" as="geometry"/>
                </mxCell>
                <mxCell id="60xZTS15K_yhB3AreUBm-29" value="id_category === undefined&lt;br&gt;OR&lt;br&gt;function checkIntegerFormat (id_category)" style="rhombus;whiteSpace=wrap;html=1;" parent="60xZTS15K_yhB3AreUBm-1" vertex="1">
                    <mxGeometry x="10" y="360" width="170" height="180" as="geometry"/>
                </mxCell>
                <mxCell id="60xZTS15K_yhB3AreUBm-39" style="edgeStyle=orthogonalEdgeStyle;rounded=0;orthogonalLoop=1;jettySize=auto;html=1;" parent="60xZTS15K_yhB3AreUBm-1" source="60xZTS15K_yhB3AreUBm-33" edge="1">
                    <mxGeometry relative="1" as="geometry">
                        <mxPoint x="-10" y="450" as="targetPoint"/>
                    </mxGeometry>
                </mxCell>
                <mxCell id="60xZTS15K_yhB3AreUBm-33" value="error.length = 'Input parameter id_category salah!'" style="rounded=0;whiteSpace=wrap;html=1;" parent="60xZTS15K_yhB3AreUBm-1" vertex="1">
                    <mxGeometry x="35" y="590" width="120" height="60" as="geometry"/>
                </mxCell>
                <mxCell id="60xZTS15K_yhB3AreUBm-35" value="stock === undefined&lt;br&gt;OR&lt;br&gt;function checkIntegerFormat (stock)" style="rhombus;whiteSpace=wrap;html=1;" parent="60xZTS15K_yhB3AreUBm-1" vertex="1">
                    <mxGeometry x="-200" y="360" width="170" height="180" as="geometry"/>
                </mxCell>
                <mxCell id="60xZTS15K_yhB3AreUBm-37" value="TRUE" style="edgeStyle=orthogonalEdgeStyle;rounded=0;orthogonalLoop=1;jettySize=auto;html=1;" parent="60xZTS15K_yhB3AreUBm-1" target="60xZTS15K_yhB3AreUBm-38" edge="1">
                    <mxGeometry relative="1" as="geometry">
                        <mxPoint x="-115" y="540" as="sourcePoint"/>
                    </mxGeometry>
                </mxCell>
                <mxCell id="60xZTS15K_yhB3AreUBm-44" style="edgeStyle=orthogonalEdgeStyle;rounded=0;orthogonalLoop=1;jettySize=auto;html=1;" parent="60xZTS15K_yhB3AreUBm-1" source="60xZTS15K_yhB3AreUBm-38" edge="1">
                    <mxGeometry relative="1" as="geometry">
                        <mxPoint x="-220" y="450" as="targetPoint"/>
                    </mxGeometry>
                </mxCell>
                <mxCell id="60xZTS15K_yhB3AreUBm-38" value="error.length = 'Input parameter stock salah!'" style="rounded=0;whiteSpace=wrap;html=1;" parent="60xZTS15K_yhB3AreUBm-1" vertex="1">
                    <mxGeometry x="-175" y="590" width="120" height="60" as="geometry"/>
                </mxCell>
                <mxCell id="60xZTS15K_yhB3AreUBm-40" style="edgeStyle=orthogonalEdgeStyle;rounded=0;orthogonalLoop=1;jettySize=auto;html=1;" parent="60xZTS15K_yhB3AreUBm-1" target="60xZTS15K_yhB3AreUBm-41" edge="1">
                    <mxGeometry relative="1" as="geometry">
                        <mxPoint x="-200" y="450" as="sourcePoint"/>
                    </mxGeometry>
                </mxCell>
                <mxCell id="60xZTS15K_yhB3AreUBm-41" value="price === undefined&lt;br&gt;OR&lt;br&gt;function checkPriceFormat (price)" style="rhombus;whiteSpace=wrap;html=1;" parent="60xZTS15K_yhB3AreUBm-1" vertex="1">
                    <mxGeometry x="-410" y="360" width="170" height="180" as="geometry"/>
                </mxCell>
                <mxCell id="60xZTS15K_yhB3AreUBm-42" value="TRUE" style="edgeStyle=orthogonalEdgeStyle;rounded=0;orthogonalLoop=1;jettySize=auto;html=1;" parent="60xZTS15K_yhB3AreUBm-1" target="60xZTS15K_yhB3AreUBm-43" edge="1">
                    <mxGeometry relative="1" as="geometry">
                        <mxPoint x="-325" y="540" as="sourcePoint"/>
                    </mxGeometry>
                </mxCell>
                <mxCell id="60xZTS15K_yhB3AreUBm-49" style="edgeStyle=orthogonalEdgeStyle;rounded=0;orthogonalLoop=1;jettySize=auto;html=1;" parent="60xZTS15K_yhB3AreUBm-1" source="60xZTS15K_yhB3AreUBm-43" edge="1">
                    <mxGeometry relative="1" as="geometry">
                        <mxPoint x="-430" y="450" as="targetPoint"/>
                    </mxGeometry>
                </mxCell>
                <mxCell id="60xZTS15K_yhB3AreUBm-43" value="error.length = 'Input parameter harga salah!'" style="rounded=0;whiteSpace=wrap;html=1;" parent="60xZTS15K_yhB3AreUBm-1" vertex="1">
                    <mxGeometry x="-385" y="590" width="120" height="60" as="geometry"/>
                </mxCell>
                <mxCell id="60xZTS15K_yhB3AreUBm-45" style="edgeStyle=orthogonalEdgeStyle;rounded=0;orthogonalLoop=1;jettySize=auto;html=1;" parent="60xZTS15K_yhB3AreUBm-1" target="60xZTS15K_yhB3AreUBm-46" edge="1">
                    <mxGeometry relative="1" as="geometry">
                        <mxPoint x="-410" y="450" as="sourcePoint"/>
                    </mxGeometry>
                </mxCell>
                <mxCell id="60xZTS15K_yhB3AreUBm-55" style="edgeStyle=orthogonalEdgeStyle;rounded=0;orthogonalLoop=1;jettySize=auto;html=1;" parent="60xZTS15K_yhB3AreUBm-1" source="60xZTS15K_yhB3AreUBm-46" edge="1">
                    <mxGeometry relative="1" as="geometry">
                        <mxPoint x="-535" y="670" as="targetPoint"/>
                        <Array as="points">
                            <mxPoint x="-650" y="450"/>
                        </Array>
                    </mxGeometry>
                </mxCell>
                <mxCell id="60xZTS15K_yhB3AreUBm-46" value="capacity === undefined&lt;br&gt;OR&lt;br&gt;function checkIntegerFormat (capacity)" style="rhombus;whiteSpace=wrap;html=1;" parent="60xZTS15K_yhB3AreUBm-1" vertex="1">
                    <mxGeometry x="-620" y="360" width="170" height="180" as="geometry"/>
                </mxCell>
                <mxCell id="60xZTS15K_yhB3AreUBm-47" value="TRUE" style="edgeStyle=orthogonalEdgeStyle;rounded=0;orthogonalLoop=1;jettySize=auto;html=1;" parent="60xZTS15K_yhB3AreUBm-1" target="60xZTS15K_yhB3AreUBm-48" edge="1">
                    <mxGeometry relative="1" as="geometry">
                        <mxPoint x="-535" y="540" as="sourcePoint"/>
                    </mxGeometry>
                </mxCell>
                <mxCell id="60xZTS15K_yhB3AreUBm-54" style="edgeStyle=orthogonalEdgeStyle;rounded=0;orthogonalLoop=1;jettySize=auto;html=1;" parent="60xZTS15K_yhB3AreUBm-1" source="60xZTS15K_yhB3AreUBm-48" target="60xZTS15K_yhB3AreUBm-51" edge="1">
                    <mxGeometry relative="1" as="geometry"/>
                </mxCell>
                <mxCell id="60xZTS15K_yhB3AreUBm-48" value="error.length = 'Input parameter kapasitas salah!'" style="rounded=0;whiteSpace=wrap;html=1;" parent="60xZTS15K_yhB3AreUBm-1" vertex="1">
                    <mxGeometry x="-595" y="590" width="120" height="60" as="geometry"/>
                </mxCell>
                <mxCell id="60xZTS15K_yhB3AreUBm-59" style="edgeStyle=orthogonalEdgeStyle;rounded=0;orthogonalLoop=1;jettySize=auto;html=1;entryX=0;entryY=0.5;entryDx=0;entryDy=0;" parent="60xZTS15K_yhB3AreUBm-1" source="60xZTS15K_yhB3AreUBm-51" target="60xZTS15K_yhB3AreUBm-56" edge="1">
                    <mxGeometry relative="1" as="geometry"/>
                </mxCell>
                <mxCell id="60xZTS15K_yhB3AreUBm-51" value="is_available !== undefined&lt;br&gt;AND&lt;br&gt;function checkBooleanFormat (is_available)" style="rhombus;whiteSpace=wrap;html=1;" parent="60xZTS15K_yhB3AreUBm-1" vertex="1">
                    <mxGeometry x="-620" y="700" width="170" height="180" as="geometry"/>
                </mxCell>
                <mxCell id="60xZTS15K_yhB3AreUBm-52" value="TRUE" style="edgeStyle=orthogonalEdgeStyle;rounded=0;orthogonalLoop=1;jettySize=auto;html=1;" parent="60xZTS15K_yhB3AreUBm-1" target="60xZTS15K_yhB3AreUBm-53" edge="1">
                    <mxGeometry relative="1" as="geometry">
                        <mxPoint x="-535" y="880" as="sourcePoint"/>
                    </mxGeometry>
                </mxCell>
                <mxCell id="60xZTS15K_yhB3AreUBm-53" value="error.length = 'Input parameter is_available salah!'" style="rounded=0;whiteSpace=wrap;html=1;" parent="60xZTS15K_yhB3AreUBm-1" vertex="1">
                    <mxGeometry x="-595" y="930" width="120" height="60" as="geometry"/>
                </mxCell>
                <mxCell id="60xZTS15K_yhB3AreUBm-56" value="has_prepayment !== undefined&lt;br&gt;AND&lt;br&gt;function checkBooleanFormat (has_prepayment)" style="rhombus;whiteSpace=wrap;html=1;" parent="60xZTS15K_yhB3AreUBm-1" vertex="1">
                    <mxGeometry x="-410" y="700" width="170" height="180" as="geometry"/>
                </mxCell>
                <mxCell id="60xZTS15K_yhB3AreUBm-57" value="TRUE" style="edgeStyle=orthogonalEdgeStyle;rounded=0;orthogonalLoop=1;jettySize=auto;html=1;" parent="60xZTS15K_yhB3AreUBm-1" target="60xZTS15K_yhB3AreUBm-58" edge="1">
                    <mxGeometry relative="1" as="geometry">
                        <mxPoint x="-325" y="880" as="sourcePoint"/>
                    </mxGeometry>
                </mxCell>
                <mxCell id="60xZTS15K_yhB3AreUBm-58" value="error.length = 'Input parameter has_prepayment salah!'" style="rounded=0;whiteSpace=wrap;html=1;" parent="60xZTS15K_yhB3AreUBm-1" vertex="1">
                    <mxGeometry x="-385" y="930" width="120" height="60" as="geometry"/>
                </mxCell>
                <mxCell id="60xZTS15K_yhB3AreUBm-60" style="edgeStyle=orthogonalEdgeStyle;rounded=0;orthogonalLoop=1;jettySize=auto;html=1;entryX=0;entryY=0.5;entryDx=0;entryDy=0;" parent="60xZTS15K_yhB3AreUBm-1" target="60xZTS15K_yhB3AreUBm-61" edge="1">
                    <mxGeometry relative="1" as="geometry">
                        <mxPoint x="-240" y="790" as="sourcePoint"/>
                    </mxGeometry>
                </mxCell>
                <mxCell id="60xZTS15K_yhB3AreUBm-65" style="edgeStyle=orthogonalEdgeStyle;rounded=0;orthogonalLoop=1;jettySize=auto;html=1;" parent="60xZTS15K_yhB3AreUBm-1" source="60xZTS15K_yhB3AreUBm-61" target="60xZTS15K_yhB3AreUBm-64" edge="1">
                    <mxGeometry relative="1" as="geometry"/>
                </mxCell>
                <mxCell id="60xZTS15K_yhB3AreUBm-61" value="reservation_deadline !== undefined&lt;br&gt;AND&lt;br&gt;function checkTimeFormat (reservation_deadline)" style="rhombus;whiteSpace=wrap;html=1;" parent="60xZTS15K_yhB3AreUBm-1" vertex="1">
                    <mxGeometry x="-200" y="700" width="170" height="180" as="geometry"/>
                </mxCell>
                <mxCell id="60xZTS15K_yhB3AreUBm-62" value="TRUE" style="edgeStyle=orthogonalEdgeStyle;rounded=0;orthogonalLoop=1;jettySize=auto;html=1;" parent="60xZTS15K_yhB3AreUBm-1" target="60xZTS15K_yhB3AreUBm-63" edge="1">
                    <mxGeometry relative="1" as="geometry">
                        <mxPoint x="-115" y="880" as="sourcePoint"/>
                    </mxGeometry>
                </mxCell>
                <mxCell id="60xZTS15K_yhB3AreUBm-63" value="error.length = 'Input parameter reservation_deadline salah!'" style="rounded=0;whiteSpace=wrap;html=1;" parent="60xZTS15K_yhB3AreUBm-1" vertex="1">
                    <mxGeometry x="-175" y="930" width="120" height="60" as="geometry"/>
                </mxCell>
                <mxCell id="60xZTS15K_yhB3AreUBm-67" value="TRUE" style="edgeStyle=orthogonalEdgeStyle;rounded=0;orthogonalLoop=1;jettySize=auto;html=1;entryX=0;entryY=0.5;entryDx=0;entryDy=0;" parent="60xZTS15K_yhB3AreUBm-1" source="60xZTS15K_yhB3AreUBm-64" target="60xZTS15K_yhB3AreUBm-66" edge="1">
                    <mxGeometry relative="1" as="geometry"/>
                </mxCell>
                <mxCell id="ZEzSJKp_sKzGsZ2DrgxZ-3" value="FALSE" style="edgeStyle=orthogonalEdgeStyle;rounded=0;orthogonalLoop=1;jettySize=auto;html=1;" parent="60xZTS15K_yhB3AreUBm-1" source="60xZTS15K_yhB3AreUBm-64" target="60xZTS15K_yhB3AreUBm-68" edge="1">
                    <mxGeometry relative="1" as="geometry"/>
                </mxCell>
                <mxCell id="60xZTS15K_yhB3AreUBm-64" value="error.length &amp;gt; 0" style="rhombus;whiteSpace=wrap;html=1;" parent="60xZTS15K_yhB3AreUBm-1" vertex="1">
                    <mxGeometry x="10" y="700" width="170" height="180" as="geometry"/>
                </mxCell>
                <mxCell id="ZEzSJKp_sKzGsZ2DrgxZ-18" style="edgeStyle=orthogonalEdgeStyle;rounded=0;orthogonalLoop=1;jettySize=auto;html=1;" parent="60xZTS15K_yhB3AreUBm-1" source="60xZTS15K_yhB3AreUBm-66" target="ZEzSJKp_sKzGsZ2DrgxZ-15" edge="1">
                    <mxGeometry relative="1" as="geometry"/>
                </mxCell>
                <mxCell id="60xZTS15K_yhB3AreUBm-66" value="OUTPUT:&lt;br&gt;error" style="shape=parallelogram;perimeter=parallelogramPerimeter;whiteSpace=wrap;html=1;fixedSize=1;" parent="60xZTS15K_yhB3AreUBm-1" vertex="1">
                    <mxGeometry x="480" y="760" width="120" height="60" as="geometry"/>
                </mxCell>
                <mxCell id="v2M7DYPIT-LH0rJmEfYb-1" style="edgeStyle=orthogonalEdgeStyle;rounded=0;orthogonalLoop=1;jettySize=auto;html=1;" parent="60xZTS15K_yhB3AreUBm-1" source="60xZTS15K_yhB3AreUBm-68" target="v2M7DYPIT-LH0rJmEfYb-0" edge="1">
                    <mxGeometry relative="1" as="geometry"/>
                </mxCell>
                <mxCell id="60xZTS15K_yhB3AreUBm-68" value="MODEL GET data Kategori (id_category)" style="rounded=0;whiteSpace=wrap;html=1;" parent="60xZTS15K_yhB3AreUBm-1" vertex="1">
                    <mxGeometry x="35" y="930" width="120" height="60" as="geometry"/>
                </mxCell>
                <mxCell id="ZEzSJKp_sKzGsZ2DrgxZ-2" value="FALSE" style="edgeStyle=orthogonalEdgeStyle;rounded=0;orthogonalLoop=1;jettySize=auto;html=1;entryX=0;entryY=0.5;entryDx=0;entryDy=0;" parent="60xZTS15K_yhB3AreUBm-1" source="ZEzSJKp_sKzGsZ2DrgxZ-0" target="ZEzSJKp_sKzGsZ2DrgxZ-1" edge="1">
                    <mxGeometry relative="1" as="geometry"/>
                </mxCell>
                <mxCell id="ZEzSJKp_sKzGsZ2DrgxZ-6" value="TRUE" style="edgeStyle=orthogonalEdgeStyle;rounded=0;orthogonalLoop=1;jettySize=auto;html=1;" parent="60xZTS15K_yhB3AreUBm-1" source="ZEzSJKp_sKzGsZ2DrgxZ-0" target="ZEzSJKp_sKzGsZ2DrgxZ-5" edge="1">
                    <mxGeometry relative="1" as="geometry"/>
                </mxCell>
                <mxCell id="ZEzSJKp_sKzGsZ2DrgxZ-0" value="data.length &amp;gt; 0" style="rhombus;whiteSpace=wrap;html=1;" parent="60xZTS15K_yhB3AreUBm-1" vertex="1">
                    <mxGeometry x="10" y="1170" width="170" height="180" as="geometry"/>
                </mxCell>
                <mxCell id="ZEzSJKp_sKzGsZ2DrgxZ-19" style="edgeStyle=orthogonalEdgeStyle;rounded=0;orthogonalLoop=1;jettySize=auto;html=1;" parent="60xZTS15K_yhB3AreUBm-1" source="ZEzSJKp_sKzGsZ2DrgxZ-1" edge="1">
                    <mxGeometry relative="1" as="geometry">
                        <mxPoint x="700" y="1260" as="targetPoint"/>
                    </mxGeometry>
                </mxCell>
                <mxCell id="ZEzSJKp_sKzGsZ2DrgxZ-1" value="OUTPUT:&lt;br&gt;'Kategori tidak ditemukan'" style="shape=parallelogram;perimeter=parallelogramPerimeter;whiteSpace=wrap;html=1;fixedSize=1;" parent="60xZTS15K_yhB3AreUBm-1" vertex="1">
                    <mxGeometry x="480" y="1230" width="120" height="60" as="geometry"/>
                </mxCell>
                <mxCell id="v2M7DYPIT-LH0rJmEfYb-4" style="edgeStyle=orthogonalEdgeStyle;rounded=0;orthogonalLoop=1;jettySize=auto;html=1;" parent="60xZTS15K_yhB3AreUBm-1" source="ZEzSJKp_sKzGsZ2DrgxZ-5" target="v2M7DYPIT-LH0rJmEfYb-3" edge="1">
                    <mxGeometry relative="1" as="geometry"/>
                </mxCell>
                <mxCell id="ZEzSJKp_sKzGsZ2DrgxZ-5" value="MODEL GET data Vehicle (name, id_category, color)" style="rounded=0;whiteSpace=wrap;html=1;" parent="60xZTS15K_yhB3AreUBm-1" vertex="1">
                    <mxGeometry x="35" y="1400" width="120" height="60" as="geometry"/>
                </mxCell>
                <mxCell id="ZEzSJKp_sKzGsZ2DrgxZ-9" value="TRUE" style="edgeStyle=orthogonalEdgeStyle;rounded=0;orthogonalLoop=1;jettySize=auto;html=1;" parent="60xZTS15K_yhB3AreUBm-1" source="ZEzSJKp_sKzGsZ2DrgxZ-7" target="ZEzSJKp_sKzGsZ2DrgxZ-8" edge="1">
                    <mxGeometry relative="1" as="geometry"/>
                </mxCell>
                <mxCell id="ZEzSJKp_sKzGsZ2DrgxZ-12" value="FALSE" style="edgeStyle=orthogonalEdgeStyle;rounded=0;orthogonalLoop=1;jettySize=auto;html=1;" parent="60xZTS15K_yhB3AreUBm-1" source="ZEzSJKp_sKzGsZ2DrgxZ-7" target="4M792SGeiM6v6UqR3s0w-0" edge="1">
                    <mxGeometry relative="1" as="geometry"/>
                </mxCell>
                <mxCell id="ZEzSJKp_sKzGsZ2DrgxZ-7" value="data.length &amp;gt; 0" style="rhombus;whiteSpace=wrap;html=1;" parent="60xZTS15K_yhB3AreUBm-1" vertex="1">
                    <mxGeometry x="10" y="1640" width="170" height="180" as="geometry"/>
                </mxCell>
                <mxCell id="ZEzSJKp_sKzGsZ2DrgxZ-16" style="edgeStyle=orthogonalEdgeStyle;rounded=0;orthogonalLoop=1;jettySize=auto;html=1;" parent="60xZTS15K_yhB3AreUBm-1" source="ZEzSJKp_sKzGsZ2DrgxZ-8" target="ZEzSJKp_sKzGsZ2DrgxZ-15" edge="1">
                    <mxGeometry relative="1" as="geometry"/>
                </mxCell>
                <mxCell id="ZEzSJKp_sKzGsZ2DrgxZ-8" value="OUTPUT:&lt;br&gt;'Data sudah ada'" style="shape=parallelogram;perimeter=parallelogramPerimeter;whiteSpace=wrap;html=1;fixedSize=1;" parent="60xZTS15K_yhB3AreUBm-1" vertex="1">
                    <mxGeometry x="480" y="1700" width="120" height="60" as="geometry"/>
                </mxCell>
                <mxCell id="ZEzSJKp_sKzGsZ2DrgxZ-14" style="edgeStyle=orthogonalEdgeStyle;rounded=0;orthogonalLoop=1;jettySize=auto;html=1;entryX=0;entryY=0.5;entryDx=0;entryDy=0;" parent="60xZTS15K_yhB3AreUBm-1" source="ZEzSJKp_sKzGsZ2DrgxZ-11" target="ZEzSJKp_sKzGsZ2DrgxZ-13" edge="1">
                    <mxGeometry relative="1" as="geometry"/>
                </mxCell>
                <mxCell id="v2M7DYPIT-LH0rJmEfYb-7" style="edgeStyle=orthogonalEdgeStyle;rounded=0;orthogonalLoop=1;jettySize=auto;html=1;" parent="60xZTS15K_yhB3AreUBm-1" source="ZEzSJKp_sKzGsZ2DrgxZ-11" target="v2M7DYPIT-LH0rJmEfYb-6" edge="1">
                    <mxGeometry relative="1" as="geometry"/>
                </mxCell>
                <mxCell id="ZEzSJKp_sKzGsZ2DrgxZ-11" value="MODEL INSERT data Vehicle(inputData)" style="rounded=0;whiteSpace=wrap;html=1;" parent="60xZTS15K_yhB3AreUBm-1" vertex="1">
                    <mxGeometry x="290" y="1870" width="120" height="60" as="geometry"/>
                </mxCell>
                <mxCell id="ZEzSJKp_sKzGsZ2DrgxZ-17" style="edgeStyle=orthogonalEdgeStyle;rounded=0;orthogonalLoop=1;jettySize=auto;html=1;" parent="60xZTS15K_yhB3AreUBm-1" source="ZEzSJKp_sKzGsZ2DrgxZ-13" target="ZEzSJKp_sKzGsZ2DrgxZ-15" edge="1">
                    <mxGeometry relative="1" as="geometry"/>
                </mxCell>
                <mxCell id="ZEzSJKp_sKzGsZ2DrgxZ-13" value="OUTPUT:&lt;br&gt;'Data berhasil dimasukkan'" style="shape=parallelogram;perimeter=parallelogramPerimeter;whiteSpace=wrap;html=1;fixedSize=1;" parent="60xZTS15K_yhB3AreUBm-1" vertex="1">
                    <mxGeometry x="480" y="1870" width="120" height="60" as="geometry"/>
                </mxCell>
                <mxCell id="ZEzSJKp_sKzGsZ2DrgxZ-15" value="END" style="ellipse;whiteSpace=wrap;html=1;" parent="60xZTS15K_yhB3AreUBm-1" vertex="1">
                    <mxGeometry x="640" y="1690" width="120" height="80" as="geometry"/>
                </mxCell>
                <mxCell id="v2M7DYPIT-LH0rJmEfYb-2" style="edgeStyle=orthogonalEdgeStyle;rounded=0;orthogonalLoop=1;jettySize=auto;html=1;" parent="60xZTS15K_yhB3AreUBm-1" source="v2M7DYPIT-LH0rJmEfYb-0" target="ZEzSJKp_sKzGsZ2DrgxZ-0" edge="1">
                    <mxGeometry relative="1" as="geometry"/>
                </mxCell>
                <mxCell id="v2M7DYPIT-LH0rJmEfYb-0" value="DB" style="shape=cylinder3;whiteSpace=wrap;html=1;boundedLbl=1;backgroundOutline=1;size=15;" parent="60xZTS15K_yhB3AreUBm-1" vertex="1">
                    <mxGeometry x="65" y="1040" width="60" height="80" as="geometry"/>
                </mxCell>
                <mxCell id="v2M7DYPIT-LH0rJmEfYb-5" style="edgeStyle=orthogonalEdgeStyle;rounded=0;orthogonalLoop=1;jettySize=auto;html=1;" parent="60xZTS15K_yhB3AreUBm-1" source="v2M7DYPIT-LH0rJmEfYb-3" target="ZEzSJKp_sKzGsZ2DrgxZ-7" edge="1">
                    <mxGeometry relative="1" as="geometry"/>
                </mxCell>
                <mxCell id="v2M7DYPIT-LH0rJmEfYb-3" value="DB" style="shape=cylinder3;whiteSpace=wrap;html=1;boundedLbl=1;backgroundOutline=1;size=15;" parent="60xZTS15K_yhB3AreUBm-1" vertex="1">
                    <mxGeometry x="65" y="1510" width="60" height="80" as="geometry"/>
                </mxCell>
                <mxCell id="v2M7DYPIT-LH0rJmEfYb-6" value="DB" style="shape=cylinder3;whiteSpace=wrap;html=1;boundedLbl=1;backgroundOutline=1;size=15;" parent="60xZTS15K_yhB3AreUBm-1" vertex="1">
                    <mxGeometry x="320" y="1980" width="60" height="80" as="geometry"/>
                </mxCell>
                <mxCell id="4M792SGeiM6v6UqR3s0w-1" style="edgeStyle=orthogonalEdgeStyle;rounded=0;orthogonalLoop=1;jettySize=auto;html=1;" parent="60xZTS15K_yhB3AreUBm-1" source="4M792SGeiM6v6UqR3s0w-0" target="ZEzSJKp_sKzGsZ2DrgxZ-11" edge="1">
                    <mxGeometry relative="1" as="geometry"/>
                </mxCell>
                <mxCell id="4M792SGeiM6v6UqR3s0w-0" value="inputData = {name, color, location, id_category, stock, price, capacity, is_available, has_prepayment, reservation deadline}" style="rounded=0;whiteSpace=wrap;html=1;" parent="60xZTS15K_yhB3AreUBm-1" vertex="1">
                    <mxGeometry x="-35" y="1870" width="260" height="60" as="geometry"/>
                </mxCell>
            </root>
        </mxGraphModel>
    </diagram>
    <diagram name="Edit data (vehicle)" id="mfD7-Mq0NVYHCQt197Pc">
        <mxGraphModel dx="1924" dy="650" grid="1" gridSize="10" guides="1" tooltips="1" connect="1" arrows="1" fold="1" page="1" pageScale="1" pageWidth="850" pageHeight="1100" math="0" shadow="0">
            <root>
                <mxCell id="-aMJ6MZaQ1SkFrjeBySe-0"/>
                <mxCell id="-aMJ6MZaQ1SkFrjeBySe-1" parent="-aMJ6MZaQ1SkFrjeBySe-0"/>
                <mxCell id="-aMJ6MZaQ1SkFrjeBySe-2" value="Edit data (vehicle)" style="text;html=1;align=center;verticalAlign=middle;resizable=0;points=[];autosize=1;strokeColor=none;fillColor=none;" parent="-aMJ6MZaQ1SkFrjeBySe-1" vertex="1">
                    <mxGeometry x="10" y="10" width="110" height="20" as="geometry"/>
                </mxCell>
                <mxCell id="-aMJ6MZaQ1SkFrjeBySe-3" style="edgeStyle=orthogonalEdgeStyle;rounded=0;orthogonalLoop=1;jettySize=auto;html=1;" parent="-aMJ6MZaQ1SkFrjeBySe-1" source="-aMJ6MZaQ1SkFrjeBySe-4" target="-aMJ6MZaQ1SkFrjeBySe-6" edge="1">
                    <mxGeometry relative="1" as="geometry"/>
                </mxCell>
                <mxCell id="-aMJ6MZaQ1SkFrjeBySe-4" value="START" style="ellipse;whiteSpace=wrap;html=1;" parent="-aMJ6MZaQ1SkFrjeBySe-1" vertex="1">
                    <mxGeometry x="150" y="10" width="120" height="80" as="geometry"/>
                </mxCell>
                <mxCell id="-aMJ6MZaQ1SkFrjeBySe-5" style="edgeStyle=orthogonalEdgeStyle;rounded=0;orthogonalLoop=1;jettySize=auto;html=1;" parent="-aMJ6MZaQ1SkFrjeBySe-1" source="-aMJ6MZaQ1SkFrjeBySe-6" target="-aMJ6MZaQ1SkFrjeBySe-8" edge="1">
                    <mxGeometry relative="1" as="geometry"/>
                </mxCell>
                <mxCell id="-aMJ6MZaQ1SkFrjeBySe-6" value="INPUT:&lt;br&gt;name, color, &lt;br&gt;location" style="shape=parallelogram;perimeter=parallelogramPerimeter;whiteSpace=wrap;html=1;fixedSize=1;" parent="-aMJ6MZaQ1SkFrjeBySe-1" vertex="1">
                    <mxGeometry x="150" y="140" width="120" height="60" as="geometry"/>
                </mxCell>
                <mxCell id="-aMJ6MZaQ1SkFrjeBySe-7" style="edgeStyle=orthogonalEdgeStyle;rounded=0;orthogonalLoop=1;jettySize=auto;html=1;" parent="-aMJ6MZaQ1SkFrjeBySe-1" source="-aMJ6MZaQ1SkFrjeBySe-8" target="-aMJ6MZaQ1SkFrjeBySe-10" edge="1">
                    <mxGeometry relative="1" as="geometry"/>
                </mxCell>
                <mxCell id="-aMJ6MZaQ1SkFrjeBySe-8" value="INPUT:&lt;br&gt;id_category, stock&lt;br&gt;price, capacity" style="shape=parallelogram;perimeter=parallelogramPerimeter;whiteSpace=wrap;html=1;fixedSize=1;" parent="-aMJ6MZaQ1SkFrjeBySe-1" vertex="1">
                    <mxGeometry x="320" y="140" width="120" height="60" as="geometry"/>
                </mxCell>
                <mxCell id="-aMJ6MZaQ1SkFrjeBySe-9" style="edgeStyle=orthogonalEdgeStyle;rounded=0;orthogonalLoop=1;jettySize=auto;html=1;" parent="-aMJ6MZaQ1SkFrjeBySe-1" source="-aMJ6MZaQ1SkFrjeBySe-10" target="-aMJ6MZaQ1SkFrjeBySe-12" edge="1">
                    <mxGeometry relative="1" as="geometry"/>
                </mxCell>
                <mxCell id="-aMJ6MZaQ1SkFrjeBySe-10" value="INPUT:&lt;br&gt;is_available,&amp;nbsp;&lt;br&gt;has_prepayment" style="shape=parallelogram;perimeter=parallelogramPerimeter;whiteSpace=wrap;html=1;fixedSize=1;" parent="-aMJ6MZaQ1SkFrjeBySe-1" vertex="1">
                    <mxGeometry x="490" y="140" width="120" height="60" as="geometry"/>
                </mxCell>
                <mxCell id="-aMJ6MZaQ1SkFrjeBySe-11" style="edgeStyle=orthogonalEdgeStyle;rounded=0;orthogonalLoop=1;jettySize=auto;html=1;" parent="-aMJ6MZaQ1SkFrjeBySe-1" source="-aMJ6MZaQ1SkFrjeBySe-12" target="-aMJ6MZaQ1SkFrjeBySe-14" edge="1">
                    <mxGeometry relative="1" as="geometry"/>
                </mxCell>
                <mxCell id="-aMJ6MZaQ1SkFrjeBySe-12" value="INPUT:&lt;br&gt;reservation_deadline" style="shape=parallelogram;perimeter=parallelogramPerimeter;whiteSpace=wrap;html=1;fixedSize=1;" parent="-aMJ6MZaQ1SkFrjeBySe-1" vertex="1">
                    <mxGeometry x="660" y="140" width="150" height="60" as="geometry"/>
                </mxCell>
                <mxCell id="-aMJ6MZaQ1SkFrjeBySe-13" style="edgeStyle=orthogonalEdgeStyle;rounded=0;orthogonalLoop=1;jettySize=auto;html=1;" parent="-aMJ6MZaQ1SkFrjeBySe-1" source="-aMJ6MZaQ1SkFrjeBySe-14" target="-aMJ6MZaQ1SkFrjeBySe-17" edge="1">
                    <mxGeometry relative="1" as="geometry"/>
                </mxCell>
                <mxCell id="-aMJ6MZaQ1SkFrjeBySe-14" value="id = request.params.id&lt;br&gt;error = []" style="rounded=0;whiteSpace=wrap;html=1;" parent="-aMJ6MZaQ1SkFrjeBySe-1" vertex="1">
                    <mxGeometry x="672.5" y="250" width="125" height="60" as="geometry"/>
                </mxCell>
                <mxCell id="-aMJ6MZaQ1SkFrjeBySe-15" style="edgeStyle=orthogonalEdgeStyle;rounded=0;orthogonalLoop=1;jettySize=auto;html=1;" parent="-aMJ6MZaQ1SkFrjeBySe-1" source="-aMJ6MZaQ1SkFrjeBySe-17" target="-aMJ6MZaQ1SkFrjeBySe-20" edge="1">
                    <mxGeometry relative="1" as="geometry"/>
                </mxCell>
                <mxCell id="-aMJ6MZaQ1SkFrjeBySe-16" value="TRUE" style="edgeStyle=orthogonalEdgeStyle;rounded=0;orthogonalLoop=1;jettySize=auto;html=1;" parent="-aMJ6MZaQ1SkFrjeBySe-1" source="-aMJ6MZaQ1SkFrjeBySe-17" target="-aMJ6MZaQ1SkFrjeBySe-25" edge="1">
                    <mxGeometry relative="1" as="geometry"/>
                </mxCell>
                <mxCell id="-aMJ6MZaQ1SkFrjeBySe-17" value="name === undefined&lt;br&gt;name.length === 0&lt;br&gt;name.length &amp;gt; 100" style="rhombus;whiteSpace=wrap;html=1;" parent="-aMJ6MZaQ1SkFrjeBySe-1" vertex="1">
                    <mxGeometry x="650" y="360" width="170" height="180" as="geometry"/>
                </mxCell>
                <mxCell id="-aMJ6MZaQ1SkFrjeBySe-18" style="edgeStyle=orthogonalEdgeStyle;rounded=0;orthogonalLoop=1;jettySize=auto;html=1;" parent="-aMJ6MZaQ1SkFrjeBySe-1" source="-aMJ6MZaQ1SkFrjeBySe-20" target="-aMJ6MZaQ1SkFrjeBySe-23" edge="1">
                    <mxGeometry relative="1" as="geometry"/>
                </mxCell>
                <mxCell id="-aMJ6MZaQ1SkFrjeBySe-19" value="TRUE" style="edgeStyle=orthogonalEdgeStyle;rounded=0;orthogonalLoop=1;jettySize=auto;html=1;" parent="-aMJ6MZaQ1SkFrjeBySe-1" source="-aMJ6MZaQ1SkFrjeBySe-20" target="-aMJ6MZaQ1SkFrjeBySe-27" edge="1">
                    <mxGeometry relative="1" as="geometry"/>
                </mxCell>
                <mxCell id="-aMJ6MZaQ1SkFrjeBySe-20" value="color === undefined&lt;br&gt;color.length === 0&lt;br&gt;color.length &amp;gt; 30" style="rhombus;whiteSpace=wrap;html=1;" parent="-aMJ6MZaQ1SkFrjeBySe-1" vertex="1">
                    <mxGeometry x="435" y="360" width="170" height="180" as="geometry"/>
                </mxCell>
                <mxCell id="-aMJ6MZaQ1SkFrjeBySe-21" value="TRUE" style="edgeStyle=orthogonalEdgeStyle;rounded=0;orthogonalLoop=1;jettySize=auto;html=1;" parent="-aMJ6MZaQ1SkFrjeBySe-1" source="-aMJ6MZaQ1SkFrjeBySe-23" target="-aMJ6MZaQ1SkFrjeBySe-29" edge="1">
                    <mxGeometry relative="1" as="geometry"/>
                </mxCell>
                <mxCell id="-aMJ6MZaQ1SkFrjeBySe-22" style="edgeStyle=orthogonalEdgeStyle;rounded=0;orthogonalLoop=1;jettySize=auto;html=1;" parent="-aMJ6MZaQ1SkFrjeBySe-1" source="-aMJ6MZaQ1SkFrjeBySe-23" target="-aMJ6MZaQ1SkFrjeBySe-32" edge="1">
                    <mxGeometry relative="1" as="geometry"/>
                </mxCell>
                <mxCell id="-aMJ6MZaQ1SkFrjeBySe-23" value="location === undefined&lt;br&gt;OR&lt;br&gt;location.length === 0&lt;br&gt;OR&lt;br&gt;location.length &amp;gt; 100" style="rhombus;whiteSpace=wrap;html=1;" parent="-aMJ6MZaQ1SkFrjeBySe-1" vertex="1">
                    <mxGeometry x="220" y="360" width="170" height="180" as="geometry"/>
                </mxCell>
                <mxCell id="-aMJ6MZaQ1SkFrjeBySe-24" style="edgeStyle=orthogonalEdgeStyle;rounded=0;orthogonalLoop=1;jettySize=auto;html=1;" parent="-aMJ6MZaQ1SkFrjeBySe-1" source="-aMJ6MZaQ1SkFrjeBySe-25" edge="1">
                    <mxGeometry relative="1" as="geometry">
                        <mxPoint x="630" y="450" as="targetPoint"/>
                    </mxGeometry>
                </mxCell>
                <mxCell id="-aMJ6MZaQ1SkFrjeBySe-25" value="error.length = 'Input parameter nama salah!'" style="rounded=0;whiteSpace=wrap;html=1;" parent="-aMJ6MZaQ1SkFrjeBySe-1" vertex="1">
                    <mxGeometry x="675" y="590" width="120" height="60" as="geometry"/>
                </mxCell>
                <mxCell id="-aMJ6MZaQ1SkFrjeBySe-26" style="edgeStyle=orthogonalEdgeStyle;rounded=0;orthogonalLoop=1;jettySize=auto;html=1;" parent="-aMJ6MZaQ1SkFrjeBySe-1" source="-aMJ6MZaQ1SkFrjeBySe-27" edge="1">
                    <mxGeometry relative="1" as="geometry">
                        <mxPoint x="420" y="450" as="targetPoint"/>
                        <Array as="points">
                            <mxPoint x="420" y="640"/>
                        </Array>
                    </mxGeometry>
                </mxCell>
                <mxCell id="-aMJ6MZaQ1SkFrjeBySe-27" value="error.length = 'Input parameter warna salah!'" style="rounded=0;whiteSpace=wrap;html=1;" parent="-aMJ6MZaQ1SkFrjeBySe-1" vertex="1">
                    <mxGeometry x="460" y="590" width="120" height="60" as="geometry"/>
                </mxCell>
                <mxCell id="-aMJ6MZaQ1SkFrjeBySe-28" style="edgeStyle=orthogonalEdgeStyle;rounded=0;orthogonalLoop=1;jettySize=auto;html=1;" parent="-aMJ6MZaQ1SkFrjeBySe-1" source="-aMJ6MZaQ1SkFrjeBySe-29" edge="1">
                    <mxGeometry relative="1" as="geometry">
                        <mxPoint x="200" y="450" as="targetPoint"/>
                    </mxGeometry>
                </mxCell>
                <mxCell id="-aMJ6MZaQ1SkFrjeBySe-29" value="error.length = 'Input parameter warna salah!'" style="rounded=0;whiteSpace=wrap;html=1;" parent="-aMJ6MZaQ1SkFrjeBySe-1" vertex="1">
                    <mxGeometry x="245" y="590" width="120" height="60" as="geometry"/>
                </mxCell>
                <mxCell id="-aMJ6MZaQ1SkFrjeBySe-30" value="TRUE" style="edgeStyle=orthogonalEdgeStyle;rounded=0;orthogonalLoop=1;jettySize=auto;html=1;" parent="-aMJ6MZaQ1SkFrjeBySe-1" source="-aMJ6MZaQ1SkFrjeBySe-32" target="-aMJ6MZaQ1SkFrjeBySe-34" edge="1">
                    <mxGeometry relative="1" as="geometry"/>
                </mxCell>
                <mxCell id="-aMJ6MZaQ1SkFrjeBySe-31" style="edgeStyle=orthogonalEdgeStyle;rounded=0;orthogonalLoop=1;jettySize=auto;html=1;" parent="-aMJ6MZaQ1SkFrjeBySe-1" source="-aMJ6MZaQ1SkFrjeBySe-32" target="-aMJ6MZaQ1SkFrjeBySe-35" edge="1">
                    <mxGeometry relative="1" as="geometry"/>
                </mxCell>
                <mxCell id="-aMJ6MZaQ1SkFrjeBySe-32" value="id_category === undefined&lt;br&gt;OR&lt;br&gt;function checkIntegerFormat (id_category)" style="rhombus;whiteSpace=wrap;html=1;" parent="-aMJ6MZaQ1SkFrjeBySe-1" vertex="1">
                    <mxGeometry x="10" y="360" width="170" height="180" as="geometry"/>
                </mxCell>
                <mxCell id="-aMJ6MZaQ1SkFrjeBySe-33" style="edgeStyle=orthogonalEdgeStyle;rounded=0;orthogonalLoop=1;jettySize=auto;html=1;" parent="-aMJ6MZaQ1SkFrjeBySe-1" source="-aMJ6MZaQ1SkFrjeBySe-34" edge="1">
                    <mxGeometry relative="1" as="geometry">
                        <mxPoint x="-10" y="450" as="targetPoint"/>
                    </mxGeometry>
                </mxCell>
                <mxCell id="-aMJ6MZaQ1SkFrjeBySe-34" value="error.length = 'Input parameter id_category salah!'" style="rounded=0;whiteSpace=wrap;html=1;" parent="-aMJ6MZaQ1SkFrjeBySe-1" vertex="1">
                    <mxGeometry x="35" y="590" width="120" height="60" as="geometry"/>
                </mxCell>
                <mxCell id="-aMJ6MZaQ1SkFrjeBySe-35" value="stock === undefined&lt;br&gt;OR&lt;br&gt;function checkIntegerFormat (stock)" style="rhombus;whiteSpace=wrap;html=1;" parent="-aMJ6MZaQ1SkFrjeBySe-1" vertex="1">
                    <mxGeometry x="-200" y="360" width="170" height="180" as="geometry"/>
                </mxCell>
                <mxCell id="-aMJ6MZaQ1SkFrjeBySe-36" value="TRUE" style="edgeStyle=orthogonalEdgeStyle;rounded=0;orthogonalLoop=1;jettySize=auto;html=1;" parent="-aMJ6MZaQ1SkFrjeBySe-1" target="-aMJ6MZaQ1SkFrjeBySe-38" edge="1">
                    <mxGeometry relative="1" as="geometry">
                        <mxPoint x="-115" y="540" as="sourcePoint"/>
                    </mxGeometry>
                </mxCell>
                <mxCell id="-aMJ6MZaQ1SkFrjeBySe-37" style="edgeStyle=orthogonalEdgeStyle;rounded=0;orthogonalLoop=1;jettySize=auto;html=1;" parent="-aMJ6MZaQ1SkFrjeBySe-1" source="-aMJ6MZaQ1SkFrjeBySe-38" edge="1">
                    <mxGeometry relative="1" as="geometry">
                        <mxPoint x="-220" y="450" as="targetPoint"/>
                    </mxGeometry>
                </mxCell>
                <mxCell id="-aMJ6MZaQ1SkFrjeBySe-38" value="error.length = 'Input parameter stock salah!'" style="rounded=0;whiteSpace=wrap;html=1;" parent="-aMJ6MZaQ1SkFrjeBySe-1" vertex="1">
                    <mxGeometry x="-175" y="590" width="120" height="60" as="geometry"/>
                </mxCell>
                <mxCell id="-aMJ6MZaQ1SkFrjeBySe-39" style="edgeStyle=orthogonalEdgeStyle;rounded=0;orthogonalLoop=1;jettySize=auto;html=1;" parent="-aMJ6MZaQ1SkFrjeBySe-1" target="-aMJ6MZaQ1SkFrjeBySe-40" edge="1">
                    <mxGeometry relative="1" as="geometry">
                        <mxPoint x="-200" y="450" as="sourcePoint"/>
                    </mxGeometry>
                </mxCell>
                <mxCell id="-aMJ6MZaQ1SkFrjeBySe-40" value="price === undefined&lt;br&gt;OR&lt;br&gt;function checkPriceFormat (price)" style="rhombus;whiteSpace=wrap;html=1;" parent="-aMJ6MZaQ1SkFrjeBySe-1" vertex="1">
                    <mxGeometry x="-410" y="360" width="170" height="180" as="geometry"/>
                </mxCell>
                <mxCell id="-aMJ6MZaQ1SkFrjeBySe-41" value="TRUE" style="edgeStyle=orthogonalEdgeStyle;rounded=0;orthogonalLoop=1;jettySize=auto;html=1;" parent="-aMJ6MZaQ1SkFrjeBySe-1" target="-aMJ6MZaQ1SkFrjeBySe-43" edge="1">
                    <mxGeometry relative="1" as="geometry">
                        <mxPoint x="-325" y="540" as="sourcePoint"/>
                    </mxGeometry>
                </mxCell>
                <mxCell id="-aMJ6MZaQ1SkFrjeBySe-42" style="edgeStyle=orthogonalEdgeStyle;rounded=0;orthogonalLoop=1;jettySize=auto;html=1;" parent="-aMJ6MZaQ1SkFrjeBySe-1" source="-aMJ6MZaQ1SkFrjeBySe-43" edge="1">
                    <mxGeometry relative="1" as="geometry">
                        <mxPoint x="-430" y="450" as="targetPoint"/>
                    </mxGeometry>
                </mxCell>
                <mxCell id="-aMJ6MZaQ1SkFrjeBySe-43" value="error.length = 'Input parameter harga salah!'" style="rounded=0;whiteSpace=wrap;html=1;" parent="-aMJ6MZaQ1SkFrjeBySe-1" vertex="1">
                    <mxGeometry x="-385" y="590" width="120" height="60" as="geometry"/>
                </mxCell>
                <mxCell id="-aMJ6MZaQ1SkFrjeBySe-44" style="edgeStyle=orthogonalEdgeStyle;rounded=0;orthogonalLoop=1;jettySize=auto;html=1;" parent="-aMJ6MZaQ1SkFrjeBySe-1" target="-aMJ6MZaQ1SkFrjeBySe-46" edge="1">
                    <mxGeometry relative="1" as="geometry">
                        <mxPoint x="-410" y="450" as="sourcePoint"/>
                    </mxGeometry>
                </mxCell>
                <mxCell id="-aMJ6MZaQ1SkFrjeBySe-45" style="edgeStyle=orthogonalEdgeStyle;rounded=0;orthogonalLoop=1;jettySize=auto;html=1;" parent="-aMJ6MZaQ1SkFrjeBySe-1" source="-aMJ6MZaQ1SkFrjeBySe-46" edge="1">
                    <mxGeometry relative="1" as="geometry">
                        <mxPoint x="-535" y="670" as="targetPoint"/>
                        <Array as="points">
                            <mxPoint x="-650" y="450"/>
                        </Array>
                    </mxGeometry>
                </mxCell>
                <mxCell id="-aMJ6MZaQ1SkFrjeBySe-46" value="capacity === undefined&lt;br&gt;OR&lt;br&gt;function checkIntegerFormat (capacity)" style="rhombus;whiteSpace=wrap;html=1;" parent="-aMJ6MZaQ1SkFrjeBySe-1" vertex="1">
                    <mxGeometry x="-620" y="360" width="170" height="180" as="geometry"/>
                </mxCell>
                <mxCell id="-aMJ6MZaQ1SkFrjeBySe-47" value="TRUE" style="edgeStyle=orthogonalEdgeStyle;rounded=0;orthogonalLoop=1;jettySize=auto;html=1;" parent="-aMJ6MZaQ1SkFrjeBySe-1" target="-aMJ6MZaQ1SkFrjeBySe-49" edge="1">
                    <mxGeometry relative="1" as="geometry">
                        <mxPoint x="-535" y="540" as="sourcePoint"/>
                    </mxGeometry>
                </mxCell>
                <mxCell id="-aMJ6MZaQ1SkFrjeBySe-48" style="edgeStyle=orthogonalEdgeStyle;rounded=0;orthogonalLoop=1;jettySize=auto;html=1;" parent="-aMJ6MZaQ1SkFrjeBySe-1" source="-aMJ6MZaQ1SkFrjeBySe-49" target="-aMJ6MZaQ1SkFrjeBySe-51" edge="1">
                    <mxGeometry relative="1" as="geometry"/>
                </mxCell>
                <mxCell id="-aMJ6MZaQ1SkFrjeBySe-49" value="error.length = 'Input parameter kapasitas salah!'" style="rounded=0;whiteSpace=wrap;html=1;" parent="-aMJ6MZaQ1SkFrjeBySe-1" vertex="1">
                    <mxGeometry x="-595" y="590" width="120" height="60" as="geometry"/>
                </mxCell>
                <mxCell id="-aMJ6MZaQ1SkFrjeBySe-50" style="edgeStyle=orthogonalEdgeStyle;rounded=0;orthogonalLoop=1;jettySize=auto;html=1;entryX=0;entryY=0.5;entryDx=0;entryDy=0;" parent="-aMJ6MZaQ1SkFrjeBySe-1" source="-aMJ6MZaQ1SkFrjeBySe-51" target="-aMJ6MZaQ1SkFrjeBySe-54" edge="1">
                    <mxGeometry relative="1" as="geometry"/>
                </mxCell>
                <mxCell id="-aMJ6MZaQ1SkFrjeBySe-51" value="is_available !== undefined&lt;br&gt;AND&lt;br&gt;function checkBooleanFormat (is_available)" style="rhombus;whiteSpace=wrap;html=1;" parent="-aMJ6MZaQ1SkFrjeBySe-1" vertex="1">
                    <mxGeometry x="-620" y="700" width="170" height="180" as="geometry"/>
                </mxCell>
                <mxCell id="-aMJ6MZaQ1SkFrjeBySe-52" value="TRUE" style="edgeStyle=orthogonalEdgeStyle;rounded=0;orthogonalLoop=1;jettySize=auto;html=1;" parent="-aMJ6MZaQ1SkFrjeBySe-1" target="-aMJ6MZaQ1SkFrjeBySe-53" edge="1">
                    <mxGeometry relative="1" as="geometry">
                        <mxPoint x="-535" y="880" as="sourcePoint"/>
                    </mxGeometry>
                </mxCell>
                <mxCell id="-aMJ6MZaQ1SkFrjeBySe-53" value="error.length = 'Input parameter is_available salah!'" style="rounded=0;whiteSpace=wrap;html=1;" parent="-aMJ6MZaQ1SkFrjeBySe-1" vertex="1">
                    <mxGeometry x="-595" y="930" width="120" height="60" as="geometry"/>
                </mxCell>
                <mxCell id="-aMJ6MZaQ1SkFrjeBySe-54" value="has_prepayment !== undefined&lt;br&gt;AND&lt;br&gt;function checkBooleanFormat (has_prepayment)" style="rhombus;whiteSpace=wrap;html=1;" parent="-aMJ6MZaQ1SkFrjeBySe-1" vertex="1">
                    <mxGeometry x="-410" y="700" width="170" height="180" as="geometry"/>
                </mxCell>
                <mxCell id="-aMJ6MZaQ1SkFrjeBySe-55" value="TRUE" style="edgeStyle=orthogonalEdgeStyle;rounded=0;orthogonalLoop=1;jettySize=auto;html=1;" parent="-aMJ6MZaQ1SkFrjeBySe-1" target="-aMJ6MZaQ1SkFrjeBySe-56" edge="1">
                    <mxGeometry relative="1" as="geometry">
                        <mxPoint x="-325" y="880" as="sourcePoint"/>
                    </mxGeometry>
                </mxCell>
                <mxCell id="-aMJ6MZaQ1SkFrjeBySe-56" value="error.length = 'Input parameter has_prepayment salah!'" style="rounded=0;whiteSpace=wrap;html=1;" parent="-aMJ6MZaQ1SkFrjeBySe-1" vertex="1">
                    <mxGeometry x="-385" y="930" width="120" height="60" as="geometry"/>
                </mxCell>
                <mxCell id="-aMJ6MZaQ1SkFrjeBySe-57" style="edgeStyle=orthogonalEdgeStyle;rounded=0;orthogonalLoop=1;jettySize=auto;html=1;entryX=0;entryY=0.5;entryDx=0;entryDy=0;" parent="-aMJ6MZaQ1SkFrjeBySe-1" target="-aMJ6MZaQ1SkFrjeBySe-59" edge="1">
                    <mxGeometry relative="1" as="geometry">
                        <mxPoint x="-240" y="790" as="sourcePoint"/>
                    </mxGeometry>
                </mxCell>
                <mxCell id="-aMJ6MZaQ1SkFrjeBySe-58" style="edgeStyle=orthogonalEdgeStyle;rounded=0;orthogonalLoop=1;jettySize=auto;html=1;" parent="-aMJ6MZaQ1SkFrjeBySe-1" source="-aMJ6MZaQ1SkFrjeBySe-59" target="-aMJ6MZaQ1SkFrjeBySe-64" edge="1">
                    <mxGeometry relative="1" as="geometry"/>
                </mxCell>
                <mxCell id="-aMJ6MZaQ1SkFrjeBySe-59" value="reservation_deadline !== undefined&lt;br&gt;AND&lt;br&gt;function checkTimeFormat (reservation_deadline)" style="rhombus;whiteSpace=wrap;html=1;" parent="-aMJ6MZaQ1SkFrjeBySe-1" vertex="1">
                    <mxGeometry x="-200" y="700" width="170" height="180" as="geometry"/>
                </mxCell>
                <mxCell id="-aMJ6MZaQ1SkFrjeBySe-60" value="TRUE" style="edgeStyle=orthogonalEdgeStyle;rounded=0;orthogonalLoop=1;jettySize=auto;html=1;" parent="-aMJ6MZaQ1SkFrjeBySe-1" target="-aMJ6MZaQ1SkFrjeBySe-61" edge="1">
                    <mxGeometry relative="1" as="geometry">
                        <mxPoint x="-115" y="880" as="sourcePoint"/>
                    </mxGeometry>
                </mxCell>
                <mxCell id="-aMJ6MZaQ1SkFrjeBySe-61" value="error.length = 'Input parameter reservation_deadline salah!'" style="rounded=0;whiteSpace=wrap;html=1;" parent="-aMJ6MZaQ1SkFrjeBySe-1" vertex="1">
                    <mxGeometry x="-175" y="930" width="120" height="60" as="geometry"/>
                </mxCell>
                <mxCell id="-aMJ6MZaQ1SkFrjeBySe-62" value="TRUE" style="edgeStyle=orthogonalEdgeStyle;rounded=0;orthogonalLoop=1;jettySize=auto;html=1;entryX=0;entryY=0.5;entryDx=0;entryDy=0;" parent="-aMJ6MZaQ1SkFrjeBySe-1" source="-aMJ6MZaQ1SkFrjeBySe-64" target="-aMJ6MZaQ1SkFrjeBySe-66" edge="1">
                    <mxGeometry relative="1" as="geometry"/>
                </mxCell>
                <mxCell id="-aMJ6MZaQ1SkFrjeBySe-63" value="FALSE" style="edgeStyle=orthogonalEdgeStyle;rounded=0;orthogonalLoop=1;jettySize=auto;html=1;" parent="-aMJ6MZaQ1SkFrjeBySe-1" source="-aMJ6MZaQ1SkFrjeBySe-64" target="-aMJ6MZaQ1SkFrjeBySe-68" edge="1">
                    <mxGeometry relative="1" as="geometry"/>
                </mxCell>
                <mxCell id="-aMJ6MZaQ1SkFrjeBySe-64" value="error.length &amp;gt; 0" style="rhombus;whiteSpace=wrap;html=1;" parent="-aMJ6MZaQ1SkFrjeBySe-1" vertex="1">
                    <mxGeometry x="10" y="700" width="170" height="180" as="geometry"/>
                </mxCell>
                <mxCell id="-aMJ6MZaQ1SkFrjeBySe-65" style="edgeStyle=orthogonalEdgeStyle;rounded=0;orthogonalLoop=1;jettySize=auto;html=1;" parent="-aMJ6MZaQ1SkFrjeBySe-1" source="-aMJ6MZaQ1SkFrjeBySe-66" target="-aMJ6MZaQ1SkFrjeBySe-85" edge="1">
                    <mxGeometry relative="1" as="geometry"/>
                </mxCell>
                <mxCell id="-aMJ6MZaQ1SkFrjeBySe-66" value="OUTPUT:&lt;br&gt;error" style="shape=parallelogram;perimeter=parallelogramPerimeter;whiteSpace=wrap;html=1;fixedSize=1;" parent="-aMJ6MZaQ1SkFrjeBySe-1" vertex="1">
                    <mxGeometry x="460" y="760" width="120" height="60" as="geometry"/>
                </mxCell>
                <mxCell id="GmAgNlhJpiTgpbazXjjO-2" style="edgeStyle=orthogonalEdgeStyle;rounded=0;orthogonalLoop=1;jettySize=auto;html=1;" parent="-aMJ6MZaQ1SkFrjeBySe-1" source="-aMJ6MZaQ1SkFrjeBySe-68" target="GmAgNlhJpiTgpbazXjjO-0" edge="1">
                    <mxGeometry relative="1" as="geometry"/>
                </mxCell>
                <mxCell id="-aMJ6MZaQ1SkFrjeBySe-68" value="MODEL GET data Kategori (id_category)" style="rounded=0;whiteSpace=wrap;html=1;" parent="-aMJ6MZaQ1SkFrjeBySe-1" vertex="1">
                    <mxGeometry x="35" y="930" width="120" height="60" as="geometry"/>
                </mxCell>
                <mxCell id="-aMJ6MZaQ1SkFrjeBySe-69" value="FALSE" style="edgeStyle=orthogonalEdgeStyle;rounded=0;orthogonalLoop=1;jettySize=auto;html=1;entryX=0;entryY=0.5;entryDx=0;entryDy=0;" parent="-aMJ6MZaQ1SkFrjeBySe-1" source="-aMJ6MZaQ1SkFrjeBySe-71" target="-aMJ6MZaQ1SkFrjeBySe-73" edge="1">
                    <mxGeometry relative="1" as="geometry"/>
                </mxCell>
                <mxCell id="-aMJ6MZaQ1SkFrjeBySe-70" value="TRUE" style="edgeStyle=orthogonalEdgeStyle;rounded=0;orthogonalLoop=1;jettySize=auto;html=1;" parent="-aMJ6MZaQ1SkFrjeBySe-1" target="-aMJ6MZaQ1SkFrjeBySe-75" edge="1">
                    <mxGeometry relative="1" as="geometry">
                        <mxPoint x="95" y="1820" as="sourcePoint"/>
                    </mxGeometry>
                </mxCell>
                <mxCell id="-aMJ6MZaQ1SkFrjeBySe-88" value="TRUE" style="edgeStyle=orthogonalEdgeStyle;rounded=0;orthogonalLoop=1;jettySize=auto;html=1;" parent="-aMJ6MZaQ1SkFrjeBySe-1" source="-aMJ6MZaQ1SkFrjeBySe-71" target="-aMJ6MZaQ1SkFrjeBySe-86" edge="1">
                    <mxGeometry relative="1" as="geometry"/>
                </mxCell>
                <mxCell id="-aMJ6MZaQ1SkFrjeBySe-71" value="data.length &amp;gt; 0" style="rhombus;whiteSpace=wrap;html=1;" parent="-aMJ6MZaQ1SkFrjeBySe-1" vertex="1">
                    <mxGeometry x="10" y="1170" width="170" height="180" as="geometry"/>
                </mxCell>
                <mxCell id="-aMJ6MZaQ1SkFrjeBySe-72" style="edgeStyle=orthogonalEdgeStyle;rounded=0;orthogonalLoop=1;jettySize=auto;html=1;" parent="-aMJ6MZaQ1SkFrjeBySe-1" source="-aMJ6MZaQ1SkFrjeBySe-73" edge="1">
                    <mxGeometry relative="1" as="geometry">
                        <mxPoint x="680" y="1260" as="targetPoint"/>
                    </mxGeometry>
                </mxCell>
                <mxCell id="-aMJ6MZaQ1SkFrjeBySe-73" value="OUTPUT:&lt;br&gt;'Kategori tidak ditemukan'" style="shape=parallelogram;perimeter=parallelogramPerimeter;whiteSpace=wrap;html=1;fixedSize=1;" parent="-aMJ6MZaQ1SkFrjeBySe-1" vertex="1">
                    <mxGeometry x="460" y="1230" width="120" height="60" as="geometry"/>
                </mxCell>
                <mxCell id="-aMJ6MZaQ1SkFrjeBySe-74" style="edgeStyle=orthogonalEdgeStyle;rounded=0;orthogonalLoop=1;jettySize=auto;html=1;" parent="-aMJ6MZaQ1SkFrjeBySe-1" source="-aMJ6MZaQ1SkFrjeBySe-75" target="-aMJ6MZaQ1SkFrjeBySe-78" edge="1">
                    <mxGeometry relative="1" as="geometry"/>
                </mxCell>
                <mxCell id="-aMJ6MZaQ1SkFrjeBySe-75" value="MODEL GET data Vehicle (id, name, id_category, color)" style="rounded=0;whiteSpace=wrap;html=1;" parent="-aMJ6MZaQ1SkFrjeBySe-1" vertex="1">
                    <mxGeometry x="35" y="1870" width="120" height="60" as="geometry"/>
                </mxCell>
                <mxCell id="-aMJ6MZaQ1SkFrjeBySe-76" value="TRUE" style="edgeStyle=orthogonalEdgeStyle;rounded=0;orthogonalLoop=1;jettySize=auto;html=1;" parent="-aMJ6MZaQ1SkFrjeBySe-1" source="-aMJ6MZaQ1SkFrjeBySe-78" target="-aMJ6MZaQ1SkFrjeBySe-80" edge="1">
                    <mxGeometry relative="1" as="geometry"/>
                </mxCell>
                <mxCell id="lAoIR5r81acDQcIZSsYm-1" style="edgeStyle=orthogonalEdgeStyle;rounded=0;orthogonalLoop=1;jettySize=auto;html=1;" parent="-aMJ6MZaQ1SkFrjeBySe-1" source="-aMJ6MZaQ1SkFrjeBySe-78" target="lAoIR5r81acDQcIZSsYm-0" edge="1">
                    <mxGeometry relative="1" as="geometry"/>
                </mxCell>
                <mxCell id="-aMJ6MZaQ1SkFrjeBySe-78" value="data.length &amp;gt; 0" style="rhombus;whiteSpace=wrap;html=1;" parent="-aMJ6MZaQ1SkFrjeBySe-1" vertex="1">
                    <mxGeometry x="10" y="1980" width="170" height="180" as="geometry"/>
                </mxCell>
                <mxCell id="-aMJ6MZaQ1SkFrjeBySe-79" style="edgeStyle=orthogonalEdgeStyle;rounded=0;orthogonalLoop=1;jettySize=auto;html=1;" parent="-aMJ6MZaQ1SkFrjeBySe-1" source="-aMJ6MZaQ1SkFrjeBySe-80" target="-aMJ6MZaQ1SkFrjeBySe-85" edge="1">
                    <mxGeometry relative="1" as="geometry"/>
                </mxCell>
                <mxCell id="-aMJ6MZaQ1SkFrjeBySe-80" value="OUTPUT:&lt;br&gt;'Data sudah ada'" style="shape=parallelogram;perimeter=parallelogramPerimeter;whiteSpace=wrap;html=1;fixedSize=1;" parent="-aMJ6MZaQ1SkFrjeBySe-1" vertex="1">
                    <mxGeometry x="460" y="2040" width="120" height="60" as="geometry"/>
                </mxCell>
                <mxCell id="-aMJ6MZaQ1SkFrjeBySe-81" style="edgeStyle=orthogonalEdgeStyle;rounded=0;orthogonalLoop=1;jettySize=auto;html=1;entryX=0;entryY=0.5;entryDx=0;entryDy=0;" parent="-aMJ6MZaQ1SkFrjeBySe-1" source="-aMJ6MZaQ1SkFrjeBySe-82" target="-aMJ6MZaQ1SkFrjeBySe-84" edge="1">
                    <mxGeometry relative="1" as="geometry"/>
                </mxCell>
                <mxCell id="GmAgNlhJpiTgpbazXjjO-8" style="edgeStyle=orthogonalEdgeStyle;rounded=0;orthogonalLoop=1;jettySize=auto;html=1;" parent="-aMJ6MZaQ1SkFrjeBySe-1" source="-aMJ6MZaQ1SkFrjeBySe-82" target="GmAgNlhJpiTgpbazXjjO-7" edge="1">
                    <mxGeometry relative="1" as="geometry"/>
                </mxCell>
                <mxCell id="-aMJ6MZaQ1SkFrjeBySe-82" value="MODEL UPDATE data Vehicle (id, inputData)" style="rounded=0;whiteSpace=wrap;html=1;" parent="-aMJ6MZaQ1SkFrjeBySe-1" vertex="1">
                    <mxGeometry x="280" y="2210" width="120" height="60" as="geometry"/>
                </mxCell>
                <mxCell id="-aMJ6MZaQ1SkFrjeBySe-83" style="edgeStyle=orthogonalEdgeStyle;rounded=0;orthogonalLoop=1;jettySize=auto;html=1;" parent="-aMJ6MZaQ1SkFrjeBySe-1" source="-aMJ6MZaQ1SkFrjeBySe-84" target="-aMJ6MZaQ1SkFrjeBySe-85" edge="1">
                    <mxGeometry relative="1" as="geometry"/>
                </mxCell>
                <mxCell id="-aMJ6MZaQ1SkFrjeBySe-84" value="OUTPUT:&lt;br&gt;'Data berhasil dimasukkan'" style="shape=parallelogram;perimeter=parallelogramPerimeter;whiteSpace=wrap;html=1;fixedSize=1;" parent="-aMJ6MZaQ1SkFrjeBySe-1" vertex="1">
                    <mxGeometry x="460" y="2210" width="120" height="60" as="geometry"/>
                </mxCell>
                <mxCell id="-aMJ6MZaQ1SkFrjeBySe-85" value="END" style="ellipse;whiteSpace=wrap;html=1;" parent="-aMJ6MZaQ1SkFrjeBySe-1" vertex="1">
                    <mxGeometry x="620" y="2030" width="120" height="80" as="geometry"/>
                </mxCell>
                <mxCell id="GmAgNlhJpiTgpbazXjjO-5" style="edgeStyle=orthogonalEdgeStyle;rounded=0;orthogonalLoop=1;jettySize=auto;html=1;" parent="-aMJ6MZaQ1SkFrjeBySe-1" source="-aMJ6MZaQ1SkFrjeBySe-86" target="GmAgNlhJpiTgpbazXjjO-4" edge="1">
                    <mxGeometry relative="1" as="geometry">
                        <mxPoint x="93" y="1570" as="targetPoint"/>
                    </mxGeometry>
                </mxCell>
                <mxCell id="-aMJ6MZaQ1SkFrjeBySe-86" value="MODEL GET data Vehicle (id)" style="rounded=0;whiteSpace=wrap;html=1;" parent="-aMJ6MZaQ1SkFrjeBySe-1" vertex="1">
                    <mxGeometry x="35" y="1400" width="120" height="60" as="geometry"/>
                </mxCell>
                <mxCell id="-aMJ6MZaQ1SkFrjeBySe-87" value="data.length &amp;gt; 0" style="rhombus;whiteSpace=wrap;html=1;" parent="-aMJ6MZaQ1SkFrjeBySe-1" vertex="1">
                    <mxGeometry x="10" y="1640" width="170" height="180" as="geometry"/>
                </mxCell>
                <mxCell id="-aMJ6MZaQ1SkFrjeBySe-90" value="FALSE" style="edgeStyle=orthogonalEdgeStyle;rounded=0;orthogonalLoop=1;jettySize=auto;html=1;entryX=0;entryY=0.5;entryDx=0;entryDy=0;" parent="-aMJ6MZaQ1SkFrjeBySe-1" target="-aMJ6MZaQ1SkFrjeBySe-92" edge="1">
                    <mxGeometry relative="1" as="geometry">
                        <mxPoint x="180" y="1730" as="sourcePoint"/>
                    </mxGeometry>
                </mxCell>
                <mxCell id="-aMJ6MZaQ1SkFrjeBySe-91" style="edgeStyle=orthogonalEdgeStyle;rounded=0;orthogonalLoop=1;jettySize=auto;html=1;" parent="-aMJ6MZaQ1SkFrjeBySe-1" source="-aMJ6MZaQ1SkFrjeBySe-92" edge="1">
                    <mxGeometry relative="1" as="geometry">
                        <mxPoint x="680" y="1730" as="targetPoint"/>
                    </mxGeometry>
                </mxCell>
                <mxCell id="-aMJ6MZaQ1SkFrjeBySe-92" value="OUTPUT:&lt;br&gt;'Vehicle tidak ditemukan'" style="shape=parallelogram;perimeter=parallelogramPerimeter;whiteSpace=wrap;html=1;fixedSize=1;" parent="-aMJ6MZaQ1SkFrjeBySe-1" vertex="1">
                    <mxGeometry x="460" y="1700" width="120" height="60" as="geometry"/>
                </mxCell>
                <mxCell id="GmAgNlhJpiTgpbazXjjO-3" style="edgeStyle=orthogonalEdgeStyle;rounded=0;orthogonalLoop=1;jettySize=auto;html=1;" parent="-aMJ6MZaQ1SkFrjeBySe-1" source="GmAgNlhJpiTgpbazXjjO-0" target="-aMJ6MZaQ1SkFrjeBySe-71" edge="1">
                    <mxGeometry relative="1" as="geometry"/>
                </mxCell>
                <mxCell id="GmAgNlhJpiTgpbazXjjO-0" value="DB" style="shape=cylinder3;whiteSpace=wrap;html=1;boundedLbl=1;backgroundOutline=1;size=15;" parent="-aMJ6MZaQ1SkFrjeBySe-1" vertex="1">
                    <mxGeometry x="65" y="1040" width="60" height="80" as="geometry"/>
                </mxCell>
                <mxCell id="GmAgNlhJpiTgpbazXjjO-6" style="edgeStyle=orthogonalEdgeStyle;rounded=0;orthogonalLoop=1;jettySize=auto;html=1;" parent="-aMJ6MZaQ1SkFrjeBySe-1" source="GmAgNlhJpiTgpbazXjjO-4" target="-aMJ6MZaQ1SkFrjeBySe-87" edge="1">
                    <mxGeometry relative="1" as="geometry"/>
                </mxCell>
                <mxCell id="GmAgNlhJpiTgpbazXjjO-4" value="DB" style="shape=cylinder3;whiteSpace=wrap;html=1;boundedLbl=1;backgroundOutline=1;size=15;" parent="-aMJ6MZaQ1SkFrjeBySe-1" vertex="1">
                    <mxGeometry x="65" y="1510" width="60" height="80" as="geometry"/>
                </mxCell>
                <mxCell id="GmAgNlhJpiTgpbazXjjO-7" value="DB" style="shape=cylinder3;whiteSpace=wrap;html=1;boundedLbl=1;backgroundOutline=1;size=15;" parent="-aMJ6MZaQ1SkFrjeBySe-1" vertex="1">
                    <mxGeometry x="310" y="2330" width="60" height="80" as="geometry"/>
                </mxCell>
                <mxCell id="lAoIR5r81acDQcIZSsYm-2" style="edgeStyle=orthogonalEdgeStyle;rounded=0;orthogonalLoop=1;jettySize=auto;html=1;" parent="-aMJ6MZaQ1SkFrjeBySe-1" source="lAoIR5r81acDQcIZSsYm-0" target="-aMJ6MZaQ1SkFrjeBySe-82" edge="1">
                    <mxGeometry relative="1" as="geometry"/>
                </mxCell>
                <mxCell id="lAoIR5r81acDQcIZSsYm-0" value="inputData = {name, color, location, id_category, stock, price, capacity, is_available, has_prepayment, reservation deadline}" style="rounded=0;whiteSpace=wrap;html=1;" parent="-aMJ6MZaQ1SkFrjeBySe-1" vertex="1">
                    <mxGeometry x="-35" y="2210" width="260" height="60" as="geometry"/>
                </mxCell>
            </root>
        </mxGraphModel>
    </diagram>
    <diagram id="vi6GL-Q6GOIxAW60O_yC" name="Delete data (vehicle)">
        <mxGraphModel dx="1074" dy="650" grid="1" gridSize="10" guides="1" tooltips="1" connect="1" arrows="1" fold="1" page="1" pageScale="1" pageWidth="850" pageHeight="1100" math="0" shadow="0">
            <root>
                <mxCell id="IlvK98dsqLMgJweFLFoz-0"/>
                <mxCell id="IlvK98dsqLMgJweFLFoz-1" parent="IlvK98dsqLMgJweFLFoz-0"/>
                <mxCell id="DYJhCpbbalYX82OmWbx0-0" value="Delete data (Vehicle)" style="text;html=1;align=center;verticalAlign=middle;resizable=0;points=[];autosize=1;strokeColor=none;fillColor=none;" parent="IlvK98dsqLMgJweFLFoz-1" vertex="1">
                    <mxGeometry x="25" y="20" width="130" height="20" as="geometry"/>
                </mxCell>
                <mxCell id="eR_T5w5GOREjBwu_gddL-5" style="edgeStyle=orthogonalEdgeStyle;rounded=0;orthogonalLoop=1;jettySize=auto;html=1;" parent="IlvK98dsqLMgJweFLFoz-1" source="DYJhCpbbalYX82OmWbx0-1" target="eR_T5w5GOREjBwu_gddL-0" edge="1">
                    <mxGeometry relative="1" as="geometry"/>
                </mxCell>
                <mxCell id="DYJhCpbbalYX82OmWbx0-1" value="START" style="ellipse;whiteSpace=wrap;html=1;" parent="IlvK98dsqLMgJweFLFoz-1" vertex="1">
                    <mxGeometry x="200" y="20" width="120" height="80" as="geometry"/>
                </mxCell>
                <mxCell id="eR_T5w5GOREjBwu_gddL-6" style="edgeStyle=orthogonalEdgeStyle;rounded=0;orthogonalLoop=1;jettySize=auto;html=1;" parent="IlvK98dsqLMgJweFLFoz-1" source="eR_T5w5GOREjBwu_gddL-0" target="eR_T5w5GOREjBwu_gddL-1" edge="1">
                    <mxGeometry relative="1" as="geometry"/>
                </mxCell>
                <mxCell id="eR_T5w5GOREjBwu_gddL-0" value="id = request.params.id" style="rounded=0;whiteSpace=wrap;html=1;" parent="IlvK98dsqLMgJweFLFoz-1" vertex="1">
                    <mxGeometry x="190" y="150" width="140" height="60" as="geometry"/>
                </mxCell>
                <mxCell id="8NvI0_IWGkQ7UrtdQp_V-1" style="edgeStyle=orthogonalEdgeStyle;rounded=0;orthogonalLoop=1;jettySize=auto;html=1;" parent="IlvK98dsqLMgJweFLFoz-1" source="eR_T5w5GOREjBwu_gddL-1" target="8NvI0_IWGkQ7UrtdQp_V-0" edge="1">
                    <mxGeometry relative="1" as="geometry"/>
                </mxCell>
                <mxCell id="eR_T5w5GOREjBwu_gddL-1" value="MODEL GET data vehicle (id)" style="rounded=0;whiteSpace=wrap;html=1;" parent="IlvK98dsqLMgJweFLFoz-1" vertex="1">
                    <mxGeometry x="190" y="260" width="140" height="60" as="geometry"/>
                </mxCell>
                <mxCell id="eR_T5w5GOREjBwu_gddL-4" value="FALSE" style="edgeStyle=orthogonalEdgeStyle;rounded=0;orthogonalLoop=1;jettySize=auto;html=1;" parent="IlvK98dsqLMgJweFLFoz-1" source="eR_T5w5GOREjBwu_gddL-2" target="eR_T5w5GOREjBwu_gddL-3" edge="1">
                    <mxGeometry relative="1" as="geometry"/>
                </mxCell>
                <mxCell id="eR_T5w5GOREjBwu_gddL-9" value="TRUE" style="edgeStyle=orthogonalEdgeStyle;rounded=0;orthogonalLoop=1;jettySize=auto;html=1;" parent="IlvK98dsqLMgJweFLFoz-1" source="eR_T5w5GOREjBwu_gddL-2" target="eR_T5w5GOREjBwu_gddL-8" edge="1">
                    <mxGeometry relative="1" as="geometry"/>
                </mxCell>
                <mxCell id="eR_T5w5GOREjBwu_gddL-2" value="data.length &amp;gt; 0" style="rhombus;whiteSpace=wrap;html=1;" parent="IlvK98dsqLMgJweFLFoz-1" vertex="1">
                    <mxGeometry x="205" y="500" width="110" height="110" as="geometry"/>
                </mxCell>
                <mxCell id="eR_T5w5GOREjBwu_gddL-15" style="edgeStyle=orthogonalEdgeStyle;rounded=0;orthogonalLoop=1;jettySize=auto;html=1;" parent="IlvK98dsqLMgJweFLFoz-1" source="eR_T5w5GOREjBwu_gddL-3" target="eR_T5w5GOREjBwu_gddL-13" edge="1">
                    <mxGeometry relative="1" as="geometry"/>
                </mxCell>
                <mxCell id="eR_T5w5GOREjBwu_gddL-3" value="OUTPUT:&lt;br&gt;'Data tidak ditemukan'" style="shape=parallelogram;perimeter=parallelogramPerimeter;whiteSpace=wrap;html=1;fixedSize=1;" parent="IlvK98dsqLMgJweFLFoz-1" vertex="1">
                    <mxGeometry x="380" y="525" width="170" height="60" as="geometry"/>
                </mxCell>
                <mxCell id="eR_T5w5GOREjBwu_gddL-12" style="edgeStyle=orthogonalEdgeStyle;rounded=0;orthogonalLoop=1;jettySize=auto;html=1;" parent="IlvK98dsqLMgJweFLFoz-1" source="eR_T5w5GOREjBwu_gddL-8" target="eR_T5w5GOREjBwu_gddL-11" edge="1">
                    <mxGeometry relative="1" as="geometry"/>
                </mxCell>
                <mxCell id="eR_T5w5GOREjBwu_gddL-8" value="MODEL DELETE data vehicle (id)" style="rounded=0;whiteSpace=wrap;html=1;" parent="IlvK98dsqLMgJweFLFoz-1" vertex="1">
                    <mxGeometry x="200" y="660" width="120" height="60" as="geometry"/>
                </mxCell>
                <mxCell id="eR_T5w5GOREjBwu_gddL-14" style="edgeStyle=orthogonalEdgeStyle;rounded=0;orthogonalLoop=1;jettySize=auto;html=1;" parent="IlvK98dsqLMgJweFLFoz-1" source="eR_T5w5GOREjBwu_gddL-11" target="eR_T5w5GOREjBwu_gddL-13" edge="1">
                    <mxGeometry relative="1" as="geometry"/>
                </mxCell>
                <mxCell id="eR_T5w5GOREjBwu_gddL-11" value="OUTPUT:&lt;br&gt;'Data berhasil dihapus'" style="shape=parallelogram;perimeter=parallelogramPerimeter;whiteSpace=wrap;html=1;fixedSize=1;" parent="IlvK98dsqLMgJweFLFoz-1" vertex="1">
                    <mxGeometry x="370" y="660" width="170" height="60" as="geometry"/>
                </mxCell>
                <mxCell id="eR_T5w5GOREjBwu_gddL-13" value="END" style="ellipse;whiteSpace=wrap;html=1;" parent="IlvK98dsqLMgJweFLFoz-1" vertex="1">
                    <mxGeometry x="590" y="650" width="120" height="80" as="geometry"/>
                </mxCell>
                <mxCell id="8NvI0_IWGkQ7UrtdQp_V-2" style="edgeStyle=orthogonalEdgeStyle;rounded=0;orthogonalLoop=1;jettySize=auto;html=1;" parent="IlvK98dsqLMgJweFLFoz-1" source="8NvI0_IWGkQ7UrtdQp_V-0" target="eR_T5w5GOREjBwu_gddL-2" edge="1">
                    <mxGeometry relative="1" as="geometry"/>
                </mxCell>
                <mxCell id="8NvI0_IWGkQ7UrtdQp_V-0" value="DB" style="shape=cylinder3;whiteSpace=wrap;html=1;boundedLbl=1;backgroundOutline=1;size=15;" parent="IlvK98dsqLMgJweFLFoz-1" vertex="1">
                    <mxGeometry x="230" y="370" width="60" height="80" as="geometry"/>
                </mxCell>
            </root>
        </mxGraphModel>
    </diagram>
    <diagram name="get data by id (vehicle)" id="yxoglSHn-XswqHHLNWxN">
        <mxGraphModel dx="1074" dy="650" grid="1" gridSize="10" guides="1" tooltips="1" connect="1" arrows="1" fold="1" page="1" pageScale="1" pageWidth="850" pageHeight="1100" math="0" shadow="0">
            <root>
                <mxCell id="_yQRyGcjRXaniLXPxcHx-0"/>
                <mxCell id="_yQRyGcjRXaniLXPxcHx-1" parent="_yQRyGcjRXaniLXPxcHx-0"/>
                <mxCell id="_yQRyGcjRXaniLXPxcHx-2" value="get data by id (Vehicle)" style="text;html=1;align=center;verticalAlign=middle;resizable=0;points=[];autosize=1;strokeColor=none;fillColor=none;" parent="_yQRyGcjRXaniLXPxcHx-1" vertex="1">
                    <mxGeometry x="20" y="20" width="140" height="20" as="geometry"/>
                </mxCell>
                <mxCell id="_yQRyGcjRXaniLXPxcHx-3" style="edgeStyle=orthogonalEdgeStyle;rounded=0;orthogonalLoop=1;jettySize=auto;html=1;" parent="_yQRyGcjRXaniLXPxcHx-1" source="_yQRyGcjRXaniLXPxcHx-4" target="_yQRyGcjRXaniLXPxcHx-6" edge="1">
                    <mxGeometry relative="1" as="geometry"/>
                </mxCell>
                <mxCell id="_yQRyGcjRXaniLXPxcHx-4" value="START" style="ellipse;whiteSpace=wrap;html=1;" parent="_yQRyGcjRXaniLXPxcHx-1" vertex="1">
                    <mxGeometry x="200" y="20" width="120" height="80" as="geometry"/>
                </mxCell>
                <mxCell id="_yQRyGcjRXaniLXPxcHx-5" style="edgeStyle=orthogonalEdgeStyle;rounded=0;orthogonalLoop=1;jettySize=auto;html=1;" parent="_yQRyGcjRXaniLXPxcHx-1" source="_yQRyGcjRXaniLXPxcHx-6" target="_yQRyGcjRXaniLXPxcHx-8" edge="1">
                    <mxGeometry relative="1" as="geometry"/>
                </mxCell>
                <mxCell id="_yQRyGcjRXaniLXPxcHx-6" value="id = request.params.id" style="rounded=0;whiteSpace=wrap;html=1;" parent="_yQRyGcjRXaniLXPxcHx-1" vertex="1">
                    <mxGeometry x="190" y="150" width="140" height="60" as="geometry"/>
                </mxCell>
                <mxCell id="c6lSWik2KlKCC4LLVa8w-1" style="edgeStyle=orthogonalEdgeStyle;rounded=0;orthogonalLoop=1;jettySize=auto;html=1;" parent="_yQRyGcjRXaniLXPxcHx-1" source="_yQRyGcjRXaniLXPxcHx-8" target="c6lSWik2KlKCC4LLVa8w-0" edge="1">
                    <mxGeometry relative="1" as="geometry"/>
                </mxCell>
                <mxCell id="_yQRyGcjRXaniLXPxcHx-8" value="MODEL GET data vehicle (id)" style="rounded=0;whiteSpace=wrap;html=1;" parent="_yQRyGcjRXaniLXPxcHx-1" vertex="1">
                    <mxGeometry x="190" y="260" width="140" height="60" as="geometry"/>
                </mxCell>
                <mxCell id="_yQRyGcjRXaniLXPxcHx-9" value="FALSE" style="edgeStyle=orthogonalEdgeStyle;rounded=0;orthogonalLoop=1;jettySize=auto;html=1;" parent="_yQRyGcjRXaniLXPxcHx-1" source="_yQRyGcjRXaniLXPxcHx-11" target="_yQRyGcjRXaniLXPxcHx-13" edge="1">
                    <mxGeometry relative="1" as="geometry"/>
                </mxCell>
                <mxCell id="_yQRyGcjRXaniLXPxcHx-10" value="TRUE" style="edgeStyle=orthogonalEdgeStyle;rounded=0;orthogonalLoop=1;jettySize=auto;html=1;" parent="_yQRyGcjRXaniLXPxcHx-1" source="_yQRyGcjRXaniLXPxcHx-11" edge="1">
                    <mxGeometry relative="1" as="geometry">
                        <mxPoint x="260" y="660" as="targetPoint"/>
                    </mxGeometry>
                </mxCell>
                <mxCell id="_yQRyGcjRXaniLXPxcHx-11" value="data.length &amp;gt; 0" style="rhombus;whiteSpace=wrap;html=1;" parent="_yQRyGcjRXaniLXPxcHx-1" vertex="1">
                    <mxGeometry x="205" y="500" width="110" height="110" as="geometry"/>
                </mxCell>
                <mxCell id="_yQRyGcjRXaniLXPxcHx-12" style="edgeStyle=orthogonalEdgeStyle;rounded=0;orthogonalLoop=1;jettySize=auto;html=1;" parent="_yQRyGcjRXaniLXPxcHx-1" source="_yQRyGcjRXaniLXPxcHx-13" target="_yQRyGcjRXaniLXPxcHx-18" edge="1">
                    <mxGeometry relative="1" as="geometry"/>
                </mxCell>
                <mxCell id="_yQRyGcjRXaniLXPxcHx-13" value="OUTPUT:&lt;br&gt;'Data tidak ditemukan'" style="shape=parallelogram;perimeter=parallelogramPerimeter;whiteSpace=wrap;html=1;fixedSize=1;" parent="_yQRyGcjRXaniLXPxcHx-1" vertex="1">
                    <mxGeometry x="380" y="525" width="170" height="60" as="geometry"/>
                </mxCell>
                <mxCell id="_yQRyGcjRXaniLXPxcHx-16" style="edgeStyle=orthogonalEdgeStyle;rounded=0;orthogonalLoop=1;jettySize=auto;html=1;" parent="_yQRyGcjRXaniLXPxcHx-1" source="_yQRyGcjRXaniLXPxcHx-17" target="_yQRyGcjRXaniLXPxcHx-18" edge="1">
                    <mxGeometry relative="1" as="geometry"/>
                </mxCell>
                <mxCell id="_yQRyGcjRXaniLXPxcHx-17" value="OUTPUT:&lt;br&gt;data" style="shape=parallelogram;perimeter=parallelogramPerimeter;whiteSpace=wrap;html=1;fixedSize=1;" parent="_yQRyGcjRXaniLXPxcHx-1" vertex="1">
                    <mxGeometry x="175" y="660" width="170" height="60" as="geometry"/>
                </mxCell>
                <mxCell id="_yQRyGcjRXaniLXPxcHx-18" value="END" style="ellipse;whiteSpace=wrap;html=1;" parent="_yQRyGcjRXaniLXPxcHx-1" vertex="1">
                    <mxGeometry x="405" y="650" width="120" height="80" as="geometry"/>
                </mxCell>
                <mxCell id="c6lSWik2KlKCC4LLVa8w-2" style="edgeStyle=orthogonalEdgeStyle;rounded=0;orthogonalLoop=1;jettySize=auto;html=1;" parent="_yQRyGcjRXaniLXPxcHx-1" source="c6lSWik2KlKCC4LLVa8w-0" target="_yQRyGcjRXaniLXPxcHx-11" edge="1">
                    <mxGeometry relative="1" as="geometry"/>
                </mxCell>
                <mxCell id="c6lSWik2KlKCC4LLVa8w-0" value="DB" style="shape=cylinder3;whiteSpace=wrap;html=1;boundedLbl=1;backgroundOutline=1;size=15;" parent="_yQRyGcjRXaniLXPxcHx-1" vertex="1">
                    <mxGeometry x="230" y="370" width="60" height="80" as="geometry"/>
                </mxCell>
            </root>
        </mxGraphModel>
    </diagram>
    <diagram id="bHExPQL8gt23rJQyIuuu" name="ERD">
        <mxGraphModel dx="1422" dy="800" grid="1" gridSize="10" guides="1" tooltips="1" connect="1" arrows="1" fold="1" page="1" pageScale="1" pageWidth="850" pageHeight="1100" math="0" shadow="0">
            <root>
                <mxCell id="rqFgS9RomKwqHCibQmx--0"/>
                <mxCell id="rqFgS9RomKwqHCibQmx--1" parent="rqFgS9RomKwqHCibQmx--0"/>
                <mxCell id="rqFgS9RomKwqHCibQmx--2" value="vehicles" style="shape=table;startSize=30;container=1;collapsible=1;childLayout=tableLayout;fixedRows=1;rowLines=0;fontStyle=1;align=center;resizeLast=1;" vertex="1" parent="rqFgS9RomKwqHCibQmx--1">
                    <mxGeometry x="930" y="280" width="180" height="420" as="geometry"/>
                </mxCell>
                <mxCell id="rqFgS9RomKwqHCibQmx--3" value="" style="shape=tableRow;horizontal=0;startSize=0;swimlaneHead=0;swimlaneBody=0;fillColor=none;collapsible=0;dropTarget=0;points=[[0,0.5],[1,0.5]];portConstraint=eastwest;top=0;left=0;right=0;bottom=1;" vertex="1" parent="rqFgS9RomKwqHCibQmx--2">
                    <mxGeometry y="30" width="180" height="30" as="geometry"/>
                </mxCell>
                <mxCell id="rqFgS9RomKwqHCibQmx--4" value="PK" style="shape=partialRectangle;connectable=0;fillColor=none;top=0;left=0;bottom=0;right=0;fontStyle=1;overflow=hidden;" vertex="1" parent="rqFgS9RomKwqHCibQmx--3">
                    <mxGeometry width="30" height="30" as="geometry">
                        <mxRectangle width="30" height="30" as="alternateBounds"/>
                    </mxGeometry>
                </mxCell>
                <mxCell id="rqFgS9RomKwqHCibQmx--5" value="id" style="shape=partialRectangle;connectable=0;fillColor=none;top=0;left=0;bottom=0;right=0;align=left;spacingLeft=6;fontStyle=5;overflow=hidden;" vertex="1" parent="rqFgS9RomKwqHCibQmx--3">
                    <mxGeometry x="30" width="150" height="30" as="geometry">
                        <mxRectangle width="150" height="30" as="alternateBounds"/>
                    </mxGeometry>
                </mxCell>
                <mxCell id="rqFgS9RomKwqHCibQmx--6" value="" style="shape=tableRow;horizontal=0;startSize=0;swimlaneHead=0;swimlaneBody=0;fillColor=none;collapsible=0;dropTarget=0;points=[[0,0.5],[1,0.5]];portConstraint=eastwest;top=0;left=0;right=0;bottom=0;" vertex="1" parent="rqFgS9RomKwqHCibQmx--2">
                    <mxGeometry y="60" width="180" height="30" as="geometry"/>
                </mxCell>
                <mxCell id="rqFgS9RomKwqHCibQmx--7" value="" style="shape=partialRectangle;connectable=0;fillColor=none;top=0;left=0;bottom=0;right=0;editable=1;overflow=hidden;" vertex="1" parent="rqFgS9RomKwqHCibQmx--6">
                    <mxGeometry width="30" height="30" as="geometry">
                        <mxRectangle width="30" height="30" as="alternateBounds"/>
                    </mxGeometry>
                </mxCell>
                <mxCell id="rqFgS9RomKwqHCibQmx--8" value="name" style="shape=partialRectangle;connectable=0;fillColor=none;top=0;left=0;bottom=0;right=0;align=left;spacingLeft=6;overflow=hidden;" vertex="1" parent="rqFgS9RomKwqHCibQmx--6">
                    <mxGeometry x="30" width="150" height="30" as="geometry">
                        <mxRectangle width="150" height="30" as="alternateBounds"/>
                    </mxGeometry>
                </mxCell>
                <mxCell id="rqFgS9RomKwqHCibQmx--9" value="" style="shape=tableRow;horizontal=0;startSize=0;swimlaneHead=0;swimlaneBody=0;fillColor=none;collapsible=0;dropTarget=0;points=[[0,0.5],[1,0.5]];portConstraint=eastwest;top=0;left=0;right=0;bottom=0;" vertex="1" parent="rqFgS9RomKwqHCibQmx--2">
                    <mxGeometry y="90" width="180" height="30" as="geometry"/>
                </mxCell>
                <mxCell id="rqFgS9RomKwqHCibQmx--10" value="FK" style="shape=partialRectangle;connectable=0;fillColor=none;top=0;left=0;bottom=0;right=0;editable=1;overflow=hidden;" vertex="1" parent="rqFgS9RomKwqHCibQmx--9">
                    <mxGeometry width="30" height="30" as="geometry">
                        <mxRectangle width="30" height="30" as="alternateBounds"/>
                    </mxGeometry>
                </mxCell>
                <mxCell id="rqFgS9RomKwqHCibQmx--11" value="id_category" style="shape=partialRectangle;connectable=0;fillColor=none;top=0;left=0;bottom=0;right=0;align=left;spacingLeft=6;overflow=hidden;" vertex="1" parent="rqFgS9RomKwqHCibQmx--9">
                    <mxGeometry x="30" width="150" height="30" as="geometry">
                        <mxRectangle width="150" height="30" as="alternateBounds"/>
                    </mxGeometry>
                </mxCell>
                <mxCell id="rqFgS9RomKwqHCibQmx--12" value="" style="shape=tableRow;horizontal=0;startSize=0;swimlaneHead=0;swimlaneBody=0;fillColor=none;collapsible=0;dropTarget=0;points=[[0,0.5],[1,0.5]];portConstraint=eastwest;top=0;left=0;right=0;bottom=0;" vertex="1" parent="rqFgS9RomKwqHCibQmx--2">
                    <mxGeometry y="120" width="180" height="30" as="geometry"/>
                </mxCell>
                <mxCell id="rqFgS9RomKwqHCibQmx--13" value="" style="shape=partialRectangle;connectable=0;fillColor=none;top=0;left=0;bottom=0;right=0;editable=1;overflow=hidden;" vertex="1" parent="rqFgS9RomKwqHCibQmx--12">
                    <mxGeometry width="30" height="30" as="geometry">
                        <mxRectangle width="30" height="30" as="alternateBounds"/>
                    </mxGeometry>
                </mxCell>
                <mxCell id="rqFgS9RomKwqHCibQmx--14" value="color" style="shape=partialRectangle;connectable=0;fillColor=none;top=0;left=0;bottom=0;right=0;align=left;spacingLeft=6;overflow=hidden;" vertex="1" parent="rqFgS9RomKwqHCibQmx--12">
                    <mxGeometry x="30" width="150" height="30" as="geometry">
                        <mxRectangle width="150" height="30" as="alternateBounds"/>
                    </mxGeometry>
                </mxCell>
                <mxCell id="rqFgS9RomKwqHCibQmx--15" value="" style="shape=tableRow;horizontal=0;startSize=0;swimlaneHead=0;swimlaneBody=0;fillColor=none;collapsible=0;dropTarget=0;points=[[0,0.5],[1,0.5]];portConstraint=eastwest;top=0;left=0;right=0;bottom=0;" vertex="1" parent="rqFgS9RomKwqHCibQmx--2">
                    <mxGeometry y="150" width="180" height="30" as="geometry"/>
                </mxCell>
                <mxCell id="rqFgS9RomKwqHCibQmx--16" value="" style="shape=partialRectangle;connectable=0;fillColor=none;top=0;left=0;bottom=0;right=0;editable=1;overflow=hidden;" vertex="1" parent="rqFgS9RomKwqHCibQmx--15">
                    <mxGeometry width="30" height="30" as="geometry">
                        <mxRectangle width="30" height="30" as="alternateBounds"/>
                    </mxGeometry>
                </mxCell>
                <mxCell id="rqFgS9RomKwqHCibQmx--17" value="location" style="shape=partialRectangle;connectable=0;fillColor=none;top=0;left=0;bottom=0;right=0;align=left;spacingLeft=6;overflow=hidden;" vertex="1" parent="rqFgS9RomKwqHCibQmx--15">
                    <mxGeometry x="30" width="150" height="30" as="geometry">
                        <mxRectangle width="150" height="30" as="alternateBounds"/>
                    </mxGeometry>
                </mxCell>
                <mxCell id="rqFgS9RomKwqHCibQmx--18" value="" style="shape=tableRow;horizontal=0;startSize=0;swimlaneHead=0;swimlaneBody=0;fillColor=none;collapsible=0;dropTarget=0;points=[[0,0.5],[1,0.5]];portConstraint=eastwest;top=0;left=0;right=0;bottom=0;" vertex="1" parent="rqFgS9RomKwqHCibQmx--2">
                    <mxGeometry y="180" width="180" height="30" as="geometry"/>
                </mxCell>
                <mxCell id="rqFgS9RomKwqHCibQmx--19" value="" style="shape=partialRectangle;connectable=0;fillColor=none;top=0;left=0;bottom=0;right=0;editable=1;overflow=hidden;" vertex="1" parent="rqFgS9RomKwqHCibQmx--18">
                    <mxGeometry width="30" height="30" as="geometry">
                        <mxRectangle width="30" height="30" as="alternateBounds"/>
                    </mxGeometry>
                </mxCell>
                <mxCell id="rqFgS9RomKwqHCibQmx--20" value="stock" style="shape=partialRectangle;connectable=0;fillColor=none;top=0;left=0;bottom=0;right=0;align=left;spacingLeft=6;overflow=hidden;" vertex="1" parent="rqFgS9RomKwqHCibQmx--18">
                    <mxGeometry x="30" width="150" height="30" as="geometry">
                        <mxRectangle width="150" height="30" as="alternateBounds"/>
                    </mxGeometry>
                </mxCell>
                <mxCell id="rqFgS9RomKwqHCibQmx--21" value="" style="shape=tableRow;horizontal=0;startSize=0;swimlaneHead=0;swimlaneBody=0;fillColor=none;collapsible=0;dropTarget=0;points=[[0,0.5],[1,0.5]];portConstraint=eastwest;top=0;left=0;right=0;bottom=0;" vertex="1" parent="rqFgS9RomKwqHCibQmx--2">
                    <mxGeometry y="210" width="180" height="30" as="geometry"/>
                </mxCell>
                <mxCell id="rqFgS9RomKwqHCibQmx--22" value="" style="shape=partialRectangle;connectable=0;fillColor=none;top=0;left=0;bottom=0;right=0;editable=1;overflow=hidden;" vertex="1" parent="rqFgS9RomKwqHCibQmx--21">
                    <mxGeometry width="30" height="30" as="geometry">
                        <mxRectangle width="30" height="30" as="alternateBounds"/>
                    </mxGeometry>
                </mxCell>
                <mxCell id="rqFgS9RomKwqHCibQmx--23" value="price" style="shape=partialRectangle;connectable=0;fillColor=none;top=0;left=0;bottom=0;right=0;align=left;spacingLeft=6;overflow=hidden;" vertex="1" parent="rqFgS9RomKwqHCibQmx--21">
                    <mxGeometry x="30" width="150" height="30" as="geometry">
                        <mxRectangle width="150" height="30" as="alternateBounds"/>
                    </mxGeometry>
                </mxCell>
                <mxCell id="rqFgS9RomKwqHCibQmx--24" value="" style="shape=tableRow;horizontal=0;startSize=0;swimlaneHead=0;swimlaneBody=0;fillColor=none;collapsible=0;dropTarget=0;points=[[0,0.5],[1,0.5]];portConstraint=eastwest;top=0;left=0;right=0;bottom=0;" vertex="1" parent="rqFgS9RomKwqHCibQmx--2">
                    <mxGeometry y="240" width="180" height="30" as="geometry"/>
                </mxCell>
                <mxCell id="rqFgS9RomKwqHCibQmx--25" value="" style="shape=partialRectangle;connectable=0;fillColor=none;top=0;left=0;bottom=0;right=0;editable=1;overflow=hidden;" vertex="1" parent="rqFgS9RomKwqHCibQmx--24">
                    <mxGeometry width="30" height="30" as="geometry">
                        <mxRectangle width="30" height="30" as="alternateBounds"/>
                    </mxGeometry>
                </mxCell>
                <mxCell id="rqFgS9RomKwqHCibQmx--26" value="capacity" style="shape=partialRectangle;connectable=0;fillColor=none;top=0;left=0;bottom=0;right=0;align=left;spacingLeft=6;overflow=hidden;" vertex="1" parent="rqFgS9RomKwqHCibQmx--24">
                    <mxGeometry x="30" width="150" height="30" as="geometry">
                        <mxRectangle width="150" height="30" as="alternateBounds"/>
                    </mxGeometry>
                </mxCell>
                <mxCell id="rqFgS9RomKwqHCibQmx--27" value="" style="shape=tableRow;horizontal=0;startSize=0;swimlaneHead=0;swimlaneBody=0;fillColor=none;collapsible=0;dropTarget=0;points=[[0,0.5],[1,0.5]];portConstraint=eastwest;top=0;left=0;right=0;bottom=0;" vertex="1" parent="rqFgS9RomKwqHCibQmx--2">
                    <mxGeometry y="270" width="180" height="30" as="geometry"/>
                </mxCell>
                <mxCell id="rqFgS9RomKwqHCibQmx--28" value="" style="shape=partialRectangle;connectable=0;fillColor=none;top=0;left=0;bottom=0;right=0;editable=1;overflow=hidden;" vertex="1" parent="rqFgS9RomKwqHCibQmx--27">
                    <mxGeometry width="30" height="30" as="geometry">
                        <mxRectangle width="30" height="30" as="alternateBounds"/>
                    </mxGeometry>
                </mxCell>
                <mxCell id="rqFgS9RomKwqHCibQmx--29" value="is_available" style="shape=partialRectangle;connectable=0;fillColor=none;top=0;left=0;bottom=0;right=0;align=left;spacingLeft=6;overflow=hidden;" vertex="1" parent="rqFgS9RomKwqHCibQmx--27">
                    <mxGeometry x="30" width="150" height="30" as="geometry">
                        <mxRectangle width="150" height="30" as="alternateBounds"/>
                    </mxGeometry>
                </mxCell>
                <mxCell id="rqFgS9RomKwqHCibQmx--30" value="" style="shape=tableRow;horizontal=0;startSize=0;swimlaneHead=0;swimlaneBody=0;fillColor=none;collapsible=0;dropTarget=0;points=[[0,0.5],[1,0.5]];portConstraint=eastwest;top=0;left=0;right=0;bottom=0;" vertex="1" parent="rqFgS9RomKwqHCibQmx--2">
                    <mxGeometry y="300" width="180" height="30" as="geometry"/>
                </mxCell>
                <mxCell id="rqFgS9RomKwqHCibQmx--31" value="" style="shape=partialRectangle;connectable=0;fillColor=none;top=0;left=0;bottom=0;right=0;editable=1;overflow=hidden;" vertex="1" parent="rqFgS9RomKwqHCibQmx--30">
                    <mxGeometry width="30" height="30" as="geometry">
                        <mxRectangle width="30" height="30" as="alternateBounds"/>
                    </mxGeometry>
                </mxCell>
                <mxCell id="rqFgS9RomKwqHCibQmx--32" value="has_prepayment" style="shape=partialRectangle;connectable=0;fillColor=none;top=0;left=0;bottom=0;right=0;align=left;spacingLeft=6;overflow=hidden;" vertex="1" parent="rqFgS9RomKwqHCibQmx--30">
                    <mxGeometry x="30" width="150" height="30" as="geometry">
                        <mxRectangle width="150" height="30" as="alternateBounds"/>
                    </mxGeometry>
                </mxCell>
                <mxCell id="rqFgS9RomKwqHCibQmx--33" value="" style="shape=tableRow;horizontal=0;startSize=0;swimlaneHead=0;swimlaneBody=0;fillColor=none;collapsible=0;dropTarget=0;points=[[0,0.5],[1,0.5]];portConstraint=eastwest;top=0;left=0;right=0;bottom=0;" vertex="1" parent="rqFgS9RomKwqHCibQmx--2">
                    <mxGeometry y="330" width="180" height="30" as="geometry"/>
                </mxCell>
                <mxCell id="rqFgS9RomKwqHCibQmx--34" value="" style="shape=partialRectangle;connectable=0;fillColor=none;top=0;left=0;bottom=0;right=0;editable=1;overflow=hidden;" vertex="1" parent="rqFgS9RomKwqHCibQmx--33">
                    <mxGeometry width="30" height="30" as="geometry">
                        <mxRectangle width="30" height="30" as="alternateBounds"/>
                    </mxGeometry>
                </mxCell>
                <mxCell id="rqFgS9RomKwqHCibQmx--35" value="reservation_deadline" style="shape=partialRectangle;connectable=0;fillColor=none;top=0;left=0;bottom=0;right=0;align=left;spacingLeft=6;overflow=hidden;" vertex="1" parent="rqFgS9RomKwqHCibQmx--33">
                    <mxGeometry x="30" width="150" height="30" as="geometry">
                        <mxRectangle width="150" height="30" as="alternateBounds"/>
                    </mxGeometry>
                </mxCell>
                <mxCell id="rqFgS9RomKwqHCibQmx--36" value="" style="shape=tableRow;horizontal=0;startSize=0;swimlaneHead=0;swimlaneBody=0;fillColor=none;collapsible=0;dropTarget=0;points=[[0,0.5],[1,0.5]];portConstraint=eastwest;top=0;left=0;right=0;bottom=0;" vertex="1" parent="rqFgS9RomKwqHCibQmx--2">
                    <mxGeometry y="360" width="180" height="30" as="geometry"/>
                </mxCell>
                <mxCell id="rqFgS9RomKwqHCibQmx--37" value="" style="shape=partialRectangle;connectable=0;fillColor=none;top=0;left=0;bottom=0;right=0;editable=1;overflow=hidden;" vertex="1" parent="rqFgS9RomKwqHCibQmx--36">
                    <mxGeometry width="30" height="30" as="geometry">
                        <mxRectangle width="30" height="30" as="alternateBounds"/>
                    </mxGeometry>
                </mxCell>
                <mxCell id="rqFgS9RomKwqHCibQmx--38" value="created_at" style="shape=partialRectangle;connectable=0;fillColor=none;top=0;left=0;bottom=0;right=0;align=left;spacingLeft=6;overflow=hidden;" vertex="1" parent="rqFgS9RomKwqHCibQmx--36">
                    <mxGeometry x="30" width="150" height="30" as="geometry">
                        <mxRectangle width="150" height="30" as="alternateBounds"/>
                    </mxGeometry>
                </mxCell>
                <mxCell id="rqFgS9RomKwqHCibQmx--39" value="" style="shape=tableRow;horizontal=0;startSize=0;swimlaneHead=0;swimlaneBody=0;fillColor=none;collapsible=0;dropTarget=0;points=[[0,0.5],[1,0.5]];portConstraint=eastwest;top=0;left=0;right=0;bottom=0;" vertex="1" parent="rqFgS9RomKwqHCibQmx--2">
                    <mxGeometry y="390" width="180" height="30" as="geometry"/>
                </mxCell>
                <mxCell id="rqFgS9RomKwqHCibQmx--40" value="" style="shape=partialRectangle;connectable=0;fillColor=none;top=0;left=0;bottom=0;right=0;editable=1;overflow=hidden;" vertex="1" parent="rqFgS9RomKwqHCibQmx--39">
                    <mxGeometry width="30" height="30" as="geometry">
                        <mxRectangle width="30" height="30" as="alternateBounds"/>
                    </mxGeometry>
                </mxCell>
                <mxCell id="rqFgS9RomKwqHCibQmx--41" value="updated_at" style="shape=partialRectangle;connectable=0;fillColor=none;top=0;left=0;bottom=0;right=0;align=left;spacingLeft=6;overflow=hidden;" vertex="1" parent="rqFgS9RomKwqHCibQmx--39">
                    <mxGeometry x="30" width="150" height="30" as="geometry">
                        <mxRectangle width="150" height="30" as="alternateBounds"/>
                    </mxGeometry>
                </mxCell>
                <mxCell id="rqFgS9RomKwqHCibQmx--42" value="categories" style="shape=table;startSize=30;container=1;collapsible=1;childLayout=tableLayout;fixedRows=1;rowLines=0;fontStyle=1;align=center;resizeLast=1;" vertex="1" parent="rqFgS9RomKwqHCibQmx--1">
                    <mxGeometry x="1200" y="280" width="180" height="150" as="geometry"/>
                </mxCell>
                <mxCell id="rqFgS9RomKwqHCibQmx--43" value="" style="shape=tableRow;horizontal=0;startSize=0;swimlaneHead=0;swimlaneBody=0;fillColor=none;collapsible=0;dropTarget=0;points=[[0,0.5],[1,0.5]];portConstraint=eastwest;top=0;left=0;right=0;bottom=1;" vertex="1" parent="rqFgS9RomKwqHCibQmx--42">
                    <mxGeometry y="30" width="180" height="30" as="geometry"/>
                </mxCell>
                <mxCell id="rqFgS9RomKwqHCibQmx--44" value="PK" style="shape=partialRectangle;connectable=0;fillColor=none;top=0;left=0;bottom=0;right=0;fontStyle=1;overflow=hidden;" vertex="1" parent="rqFgS9RomKwqHCibQmx--43">
                    <mxGeometry width="30" height="30" as="geometry">
                        <mxRectangle width="30" height="30" as="alternateBounds"/>
                    </mxGeometry>
                </mxCell>
                <mxCell id="rqFgS9RomKwqHCibQmx--45" value="id" style="shape=partialRectangle;connectable=0;fillColor=none;top=0;left=0;bottom=0;right=0;align=left;spacingLeft=6;fontStyle=5;overflow=hidden;" vertex="1" parent="rqFgS9RomKwqHCibQmx--43">
                    <mxGeometry x="30" width="150" height="30" as="geometry">
                        <mxRectangle width="150" height="30" as="alternateBounds"/>
                    </mxGeometry>
                </mxCell>
                <mxCell id="rqFgS9RomKwqHCibQmx--46" value="" style="shape=tableRow;horizontal=0;startSize=0;swimlaneHead=0;swimlaneBody=0;fillColor=none;collapsible=0;dropTarget=0;points=[[0,0.5],[1,0.5]];portConstraint=eastwest;top=0;left=0;right=0;bottom=0;" vertex="1" parent="rqFgS9RomKwqHCibQmx--42">
                    <mxGeometry y="60" width="180" height="30" as="geometry"/>
                </mxCell>
                <mxCell id="rqFgS9RomKwqHCibQmx--47" value="" style="shape=partialRectangle;connectable=0;fillColor=none;top=0;left=0;bottom=0;right=0;editable=1;overflow=hidden;" vertex="1" parent="rqFgS9RomKwqHCibQmx--46">
                    <mxGeometry width="30" height="30" as="geometry">
                        <mxRectangle width="30" height="30" as="alternateBounds"/>
                    </mxGeometry>
                </mxCell>
                <mxCell id="rqFgS9RomKwqHCibQmx--48" value="name" style="shape=partialRectangle;connectable=0;fillColor=none;top=0;left=0;bottom=0;right=0;align=left;spacingLeft=6;overflow=hidden;" vertex="1" parent="rqFgS9RomKwqHCibQmx--46">
                    <mxGeometry x="30" width="150" height="30" as="geometry">
                        <mxRectangle width="150" height="30" as="alternateBounds"/>
                    </mxGeometry>
                </mxCell>
                <mxCell id="rqFgS9RomKwqHCibQmx--49" value="" style="shape=tableRow;horizontal=0;startSize=0;swimlaneHead=0;swimlaneBody=0;fillColor=none;collapsible=0;dropTarget=0;points=[[0,0.5],[1,0.5]];portConstraint=eastwest;top=0;left=0;right=0;bottom=0;" vertex="1" parent="rqFgS9RomKwqHCibQmx--42">
                    <mxGeometry y="90" width="180" height="30" as="geometry"/>
                </mxCell>
                <mxCell id="rqFgS9RomKwqHCibQmx--50" value="" style="shape=partialRectangle;connectable=0;fillColor=none;top=0;left=0;bottom=0;right=0;editable=1;overflow=hidden;" vertex="1" parent="rqFgS9RomKwqHCibQmx--49">
                    <mxGeometry width="30" height="30" as="geometry">
                        <mxRectangle width="30" height="30" as="alternateBounds"/>
                    </mxGeometry>
                </mxCell>
                <mxCell id="rqFgS9RomKwqHCibQmx--51" value="created_at" style="shape=partialRectangle;connectable=0;fillColor=none;top=0;left=0;bottom=0;right=0;align=left;spacingLeft=6;overflow=hidden;" vertex="1" parent="rqFgS9RomKwqHCibQmx--49">
                    <mxGeometry x="30" width="150" height="30" as="geometry">
                        <mxRectangle width="150" height="30" as="alternateBounds"/>
                    </mxGeometry>
                </mxCell>
                <mxCell id="rqFgS9RomKwqHCibQmx--52" value="" style="shape=tableRow;horizontal=0;startSize=0;swimlaneHead=0;swimlaneBody=0;fillColor=none;collapsible=0;dropTarget=0;points=[[0,0.5],[1,0.5]];portConstraint=eastwest;top=0;left=0;right=0;bottom=0;" vertex="1" parent="rqFgS9RomKwqHCibQmx--42">
                    <mxGeometry y="120" width="180" height="30" as="geometry"/>
                </mxCell>
                <mxCell id="rqFgS9RomKwqHCibQmx--53" value="" style="shape=partialRectangle;connectable=0;fillColor=none;top=0;left=0;bottom=0;right=0;editable=1;overflow=hidden;" vertex="1" parent="rqFgS9RomKwqHCibQmx--52">
                    <mxGeometry width="30" height="30" as="geometry">
                        <mxRectangle width="30" height="30" as="alternateBounds"/>
                    </mxGeometry>
                </mxCell>
                <mxCell id="rqFgS9RomKwqHCibQmx--54" value="updated_at" style="shape=partialRectangle;connectable=0;fillColor=none;top=0;left=0;bottom=0;right=0;align=left;spacingLeft=6;overflow=hidden;" vertex="1" parent="rqFgS9RomKwqHCibQmx--52">
                    <mxGeometry x="30" width="150" height="30" as="geometry">
                        <mxRectangle width="150" height="30" as="alternateBounds"/>
                    </mxGeometry>
                </mxCell>
                <mxCell id="rqFgS9RomKwqHCibQmx--55" style="edgeStyle=orthogonalEdgeStyle;rounded=0;orthogonalLoop=1;jettySize=auto;html=1;startArrow=ERone;startFill=0;endArrow=ERmany;endFill=0;" edge="1" parent="rqFgS9RomKwqHCibQmx--1" source="rqFgS9RomKwqHCibQmx--46" target="rqFgS9RomKwqHCibQmx--9">
                    <mxGeometry relative="1" as="geometry"/>
                </mxCell>
                <mxCell id="rqFgS9RomKwqHCibQmx--56" value="users" style="shape=table;startSize=30;container=1;collapsible=1;childLayout=tableLayout;fixedRows=1;rowLines=0;fontStyle=1;align=center;resizeLast=1;" vertex="1" parent="rqFgS9RomKwqHCibQmx--1">
                    <mxGeometry x="370" y="280" width="180" height="390" as="geometry"/>
                </mxCell>
                <mxCell id="rqFgS9RomKwqHCibQmx--57" value="" style="shape=tableRow;horizontal=0;startSize=0;swimlaneHead=0;swimlaneBody=0;fillColor=none;collapsible=0;dropTarget=0;points=[[0,0.5],[1,0.5]];portConstraint=eastwest;top=0;left=0;right=0;bottom=1;" vertex="1" parent="rqFgS9RomKwqHCibQmx--56">
                    <mxGeometry y="30" width="180" height="30" as="geometry"/>
                </mxCell>
                <mxCell id="rqFgS9RomKwqHCibQmx--58" value="PK" style="shape=partialRectangle;connectable=0;fillColor=none;top=0;left=0;bottom=0;right=0;fontStyle=1;overflow=hidden;" vertex="1" parent="rqFgS9RomKwqHCibQmx--57">
                    <mxGeometry width="30" height="30" as="geometry">
                        <mxRectangle width="30" height="30" as="alternateBounds"/>
                    </mxGeometry>
                </mxCell>
                <mxCell id="rqFgS9RomKwqHCibQmx--59" value="id" style="shape=partialRectangle;connectable=0;fillColor=none;top=0;left=0;bottom=0;right=0;align=left;spacingLeft=6;fontStyle=5;overflow=hidden;" vertex="1" parent="rqFgS9RomKwqHCibQmx--57">
                    <mxGeometry x="30" width="150" height="30" as="geometry">
                        <mxRectangle width="150" height="30" as="alternateBounds"/>
                    </mxGeometry>
                </mxCell>
                <mxCell id="rqFgS9RomKwqHCibQmx--60" value="" style="shape=tableRow;horizontal=0;startSize=0;swimlaneHead=0;swimlaneBody=0;fillColor=none;collapsible=0;dropTarget=0;points=[[0,0.5],[1,0.5]];portConstraint=eastwest;top=0;left=0;right=0;bottom=0;" vertex="1" parent="rqFgS9RomKwqHCibQmx--56">
                    <mxGeometry y="60" width="180" height="30" as="geometry"/>
                </mxCell>
                <mxCell id="rqFgS9RomKwqHCibQmx--61" value="" style="shape=partialRectangle;connectable=0;fillColor=none;top=0;left=0;bottom=0;right=0;editable=1;overflow=hidden;" vertex="1" parent="rqFgS9RomKwqHCibQmx--60">
                    <mxGeometry width="30" height="30" as="geometry">
                        <mxRectangle width="30" height="30" as="alternateBounds"/>
                    </mxGeometry>
                </mxCell>
                <mxCell id="rqFgS9RomKwqHCibQmx--62" value="email" style="shape=partialRectangle;connectable=0;fillColor=none;top=0;left=0;bottom=0;right=0;align=left;spacingLeft=6;overflow=hidden;" vertex="1" parent="rqFgS9RomKwqHCibQmx--60">
                    <mxGeometry x="30" width="150" height="30" as="geometry">
                        <mxRectangle width="150" height="30" as="alternateBounds"/>
                    </mxGeometry>
                </mxCell>
                <mxCell id="rqFgS9RomKwqHCibQmx--63" value="" style="shape=tableRow;horizontal=0;startSize=0;swimlaneHead=0;swimlaneBody=0;fillColor=none;collapsible=0;dropTarget=0;points=[[0,0.5],[1,0.5]];portConstraint=eastwest;top=0;left=0;right=0;bottom=0;" vertex="1" parent="rqFgS9RomKwqHCibQmx--56">
                    <mxGeometry y="90" width="180" height="30" as="geometry"/>
                </mxCell>
                <mxCell id="rqFgS9RomKwqHCibQmx--64" value="" style="shape=partialRectangle;connectable=0;fillColor=none;top=0;left=0;bottom=0;right=0;editable=1;overflow=hidden;" vertex="1" parent="rqFgS9RomKwqHCibQmx--63">
                    <mxGeometry width="30" height="30" as="geometry">
                        <mxRectangle width="30" height="30" as="alternateBounds"/>
                    </mxGeometry>
                </mxCell>
                <mxCell id="rqFgS9RomKwqHCibQmx--65" value="password" style="shape=partialRectangle;connectable=0;fillColor=none;top=0;left=0;bottom=0;right=0;align=left;spacingLeft=6;overflow=hidden;" vertex="1" parent="rqFgS9RomKwqHCibQmx--63">
                    <mxGeometry x="30" width="150" height="30" as="geometry">
                        <mxRectangle width="150" height="30" as="alternateBounds"/>
                    </mxGeometry>
                </mxCell>
                <mxCell id="rqFgS9RomKwqHCibQmx--66" value="" style="shape=tableRow;horizontal=0;startSize=0;swimlaneHead=0;swimlaneBody=0;fillColor=none;collapsible=0;dropTarget=0;points=[[0,0.5],[1,0.5]];portConstraint=eastwest;top=0;left=0;right=0;bottom=0;" vertex="1" parent="rqFgS9RomKwqHCibQmx--56">
                    <mxGeometry y="120" width="180" height="30" as="geometry"/>
                </mxCell>
                <mxCell id="rqFgS9RomKwqHCibQmx--67" value="" style="shape=partialRectangle;connectable=0;fillColor=none;top=0;left=0;bottom=0;right=0;editable=1;overflow=hidden;" vertex="1" parent="rqFgS9RomKwqHCibQmx--66">
                    <mxGeometry width="30" height="30" as="geometry">
                        <mxRectangle width="30" height="30" as="alternateBounds"/>
                    </mxGeometry>
                </mxCell>
                <mxCell id="rqFgS9RomKwqHCibQmx--68" value="name" style="shape=partialRectangle;connectable=0;fillColor=none;top=0;left=0;bottom=0;right=0;align=left;spacingLeft=6;overflow=hidden;" vertex="1" parent="rqFgS9RomKwqHCibQmx--66">
                    <mxGeometry x="30" width="150" height="30" as="geometry">
                        <mxRectangle width="150" height="30" as="alternateBounds"/>
                    </mxGeometry>
                </mxCell>
                <mxCell id="rqFgS9RomKwqHCibQmx--69" value="" style="shape=tableRow;horizontal=0;startSize=0;swimlaneHead=0;swimlaneBody=0;fillColor=none;collapsible=0;dropTarget=0;points=[[0,0.5],[1,0.5]];portConstraint=eastwest;top=0;left=0;right=0;bottom=0;" vertex="1" parent="rqFgS9RomKwqHCibQmx--56">
                    <mxGeometry y="150" width="180" height="30" as="geometry"/>
                </mxCell>
                <mxCell id="rqFgS9RomKwqHCibQmx--70" value="" style="shape=partialRectangle;connectable=0;fillColor=none;top=0;left=0;bottom=0;right=0;editable=1;overflow=hidden;" vertex="1" parent="rqFgS9RomKwqHCibQmx--69">
                    <mxGeometry width="30" height="30" as="geometry">
                        <mxRectangle width="30" height="30" as="alternateBounds"/>
                    </mxGeometry>
                </mxCell>
                <mxCell id="rqFgS9RomKwqHCibQmx--71" value="phone_number" style="shape=partialRectangle;connectable=0;fillColor=none;top=0;left=0;bottom=0;right=0;align=left;spacingLeft=6;overflow=hidden;" vertex="1" parent="rqFgS9RomKwqHCibQmx--69">
                    <mxGeometry x="30" width="150" height="30" as="geometry">
                        <mxRectangle width="150" height="30" as="alternateBounds"/>
                    </mxGeometry>
                </mxCell>
                <mxCell id="rqFgS9RomKwqHCibQmx--72" value="" style="shape=tableRow;horizontal=0;startSize=0;swimlaneHead=0;swimlaneBody=0;fillColor=none;collapsible=0;dropTarget=0;points=[[0,0.5],[1,0.5]];portConstraint=eastwest;top=0;left=0;right=0;bottom=0;" vertex="1" parent="rqFgS9RomKwqHCibQmx--56">
                    <mxGeometry y="180" width="180" height="30" as="geometry"/>
                </mxCell>
                <mxCell id="rqFgS9RomKwqHCibQmx--73" value="" style="shape=partialRectangle;connectable=0;fillColor=none;top=0;left=0;bottom=0;right=0;editable=1;overflow=hidden;" vertex="1" parent="rqFgS9RomKwqHCibQmx--72">
                    <mxGeometry width="30" height="30" as="geometry">
                        <mxRectangle width="30" height="30" as="alternateBounds"/>
                    </mxGeometry>
                </mxCell>
                <mxCell id="rqFgS9RomKwqHCibQmx--74" value="address" style="shape=partialRectangle;connectable=0;fillColor=none;top=0;left=0;bottom=0;right=0;align=left;spacingLeft=6;overflow=hidden;" vertex="1" parent="rqFgS9RomKwqHCibQmx--72">
                    <mxGeometry x="30" width="150" height="30" as="geometry">
                        <mxRectangle width="150" height="30" as="alternateBounds"/>
                    </mxGeometry>
                </mxCell>
                <mxCell id="rqFgS9RomKwqHCibQmx--75" value="" style="shape=tableRow;horizontal=0;startSize=0;swimlaneHead=0;swimlaneBody=0;fillColor=none;collapsible=0;dropTarget=0;points=[[0,0.5],[1,0.5]];portConstraint=eastwest;top=0;left=0;right=0;bottom=0;" vertex="1" parent="rqFgS9RomKwqHCibQmx--56">
                    <mxGeometry y="210" width="180" height="30" as="geometry"/>
                </mxCell>
                <mxCell id="rqFgS9RomKwqHCibQmx--76" value="" style="shape=partialRectangle;connectable=0;fillColor=none;top=0;left=0;bottom=0;right=0;editable=1;overflow=hidden;" vertex="1" parent="rqFgS9RomKwqHCibQmx--75">
                    <mxGeometry width="30" height="30" as="geometry">
                        <mxRectangle width="30" height="30" as="alternateBounds"/>
                    </mxGeometry>
                </mxCell>
                <mxCell id="rqFgS9RomKwqHCibQmx--77" value="display_name" style="shape=partialRectangle;connectable=0;fillColor=none;top=0;left=0;bottom=0;right=0;align=left;spacingLeft=6;overflow=hidden;" vertex="1" parent="rqFgS9RomKwqHCibQmx--75">
                    <mxGeometry x="30" width="150" height="30" as="geometry">
                        <mxRectangle width="150" height="30" as="alternateBounds"/>
                    </mxGeometry>
                </mxCell>
                <mxCell id="rqFgS9RomKwqHCibQmx--78" value="" style="shape=tableRow;horizontal=0;startSize=0;swimlaneHead=0;swimlaneBody=0;fillColor=none;collapsible=0;dropTarget=0;points=[[0,0.5],[1,0.5]];portConstraint=eastwest;top=0;left=0;right=0;bottom=0;" vertex="1" parent="rqFgS9RomKwqHCibQmx--56">
                    <mxGeometry y="240" width="180" height="30" as="geometry"/>
                </mxCell>
                <mxCell id="rqFgS9RomKwqHCibQmx--79" value="" style="shape=partialRectangle;connectable=0;fillColor=none;top=0;left=0;bottom=0;right=0;editable=1;overflow=hidden;" vertex="1" parent="rqFgS9RomKwqHCibQmx--78">
                    <mxGeometry width="30" height="30" as="geometry">
                        <mxRectangle width="30" height="30" as="alternateBounds"/>
                    </mxGeometry>
                </mxCell>
                <mxCell id="rqFgS9RomKwqHCibQmx--80" value="gender" style="shape=partialRectangle;connectable=0;fillColor=none;top=0;left=0;bottom=0;right=0;align=left;spacingLeft=6;overflow=hidden;" vertex="1" parent="rqFgS9RomKwqHCibQmx--78">
                    <mxGeometry x="30" width="150" height="30" as="geometry">
                        <mxRectangle width="150" height="30" as="alternateBounds"/>
                    </mxGeometry>
                </mxCell>
                <mxCell id="rqFgS9RomKwqHCibQmx--81" value="" style="shape=tableRow;horizontal=0;startSize=0;swimlaneHead=0;swimlaneBody=0;fillColor=none;collapsible=0;dropTarget=0;points=[[0,0.5],[1,0.5]];portConstraint=eastwest;top=0;left=0;right=0;bottom=0;" vertex="1" parent="rqFgS9RomKwqHCibQmx--56">
                    <mxGeometry y="270" width="180" height="30" as="geometry"/>
                </mxCell>
                <mxCell id="rqFgS9RomKwqHCibQmx--82" value="" style="shape=partialRectangle;connectable=0;fillColor=none;top=0;left=0;bottom=0;right=0;editable=1;overflow=hidden;" vertex="1" parent="rqFgS9RomKwqHCibQmx--81">
                    <mxGeometry width="30" height="30" as="geometry">
                        <mxRectangle width="30" height="30" as="alternateBounds"/>
                    </mxGeometry>
                </mxCell>
                <mxCell id="rqFgS9RomKwqHCibQmx--83" value="birth_date" style="shape=partialRectangle;connectable=0;fillColor=none;top=0;left=0;bottom=0;right=0;align=left;spacingLeft=6;overflow=hidden;" vertex="1" parent="rqFgS9RomKwqHCibQmx--81">
                    <mxGeometry x="30" width="150" height="30" as="geometry">
                        <mxRectangle width="150" height="30" as="alternateBounds"/>
                    </mxGeometry>
                </mxCell>
                <mxCell id="rqFgS9RomKwqHCibQmx--84" value="" style="shape=tableRow;horizontal=0;startSize=0;swimlaneHead=0;swimlaneBody=0;fillColor=none;collapsible=0;dropTarget=0;points=[[0,0.5],[1,0.5]];portConstraint=eastwest;top=0;left=0;right=0;bottom=0;" vertex="1" parent="rqFgS9RomKwqHCibQmx--56">
                    <mxGeometry y="300" width="180" height="30" as="geometry"/>
                </mxCell>
                <mxCell id="rqFgS9RomKwqHCibQmx--85" value="" style="shape=partialRectangle;connectable=0;fillColor=none;top=0;left=0;bottom=0;right=0;editable=1;overflow=hidden;" vertex="1" parent="rqFgS9RomKwqHCibQmx--84">
                    <mxGeometry width="30" height="30" as="geometry">
                        <mxRectangle width="30" height="30" as="alternateBounds"/>
                    </mxGeometry>
                </mxCell>
                <mxCell id="rqFgS9RomKwqHCibQmx--86" value="picture" style="shape=partialRectangle;connectable=0;fillColor=none;top=0;left=0;bottom=0;right=0;align=left;spacingLeft=6;overflow=hidden;" vertex="1" parent="rqFgS9RomKwqHCibQmx--84">
                    <mxGeometry x="30" width="150" height="30" as="geometry">
                        <mxRectangle width="150" height="30" as="alternateBounds"/>
                    </mxGeometry>
                </mxCell>
                <mxCell id="rqFgS9RomKwqHCibQmx--87" value="" style="shape=tableRow;horizontal=0;startSize=0;swimlaneHead=0;swimlaneBody=0;fillColor=none;collapsible=0;dropTarget=0;points=[[0,0.5],[1,0.5]];portConstraint=eastwest;top=0;left=0;right=0;bottom=0;" vertex="1" parent="rqFgS9RomKwqHCibQmx--56">
                    <mxGeometry y="330" width="180" height="30" as="geometry"/>
                </mxCell>
                <mxCell id="rqFgS9RomKwqHCibQmx--88" value="" style="shape=partialRectangle;connectable=0;fillColor=none;top=0;left=0;bottom=0;right=0;editable=1;overflow=hidden;" vertex="1" parent="rqFgS9RomKwqHCibQmx--87">
                    <mxGeometry width="30" height="30" as="geometry">
                        <mxRectangle width="30" height="30" as="alternateBounds"/>
                    </mxGeometry>
                </mxCell>
                <mxCell id="rqFgS9RomKwqHCibQmx--89" value="created_at" style="shape=partialRectangle;connectable=0;fillColor=none;top=0;left=0;bottom=0;right=0;align=left;spacingLeft=6;overflow=hidden;" vertex="1" parent="rqFgS9RomKwqHCibQmx--87">
                    <mxGeometry x="30" width="150" height="30" as="geometry">
                        <mxRectangle width="150" height="30" as="alternateBounds"/>
                    </mxGeometry>
                </mxCell>
                <mxCell id="rqFgS9RomKwqHCibQmx--90" value="" style="shape=tableRow;horizontal=0;startSize=0;swimlaneHead=0;swimlaneBody=0;fillColor=none;collapsible=0;dropTarget=0;points=[[0,0.5],[1,0.5]];portConstraint=eastwest;top=0;left=0;right=0;bottom=0;" vertex="1" parent="rqFgS9RomKwqHCibQmx--56">
                    <mxGeometry y="360" width="180" height="30" as="geometry"/>
                </mxCell>
                <mxCell id="rqFgS9RomKwqHCibQmx--91" value="" style="shape=partialRectangle;connectable=0;fillColor=none;top=0;left=0;bottom=0;right=0;editable=1;overflow=hidden;" vertex="1" parent="rqFgS9RomKwqHCibQmx--90">
                    <mxGeometry width="30" height="30" as="geometry">
                        <mxRectangle width="30" height="30" as="alternateBounds"/>
                    </mxGeometry>
                </mxCell>
                <mxCell id="rqFgS9RomKwqHCibQmx--92" value="updated_at" style="shape=partialRectangle;connectable=0;fillColor=none;top=0;left=0;bottom=0;right=0;align=left;spacingLeft=6;overflow=hidden;" vertex="1" parent="rqFgS9RomKwqHCibQmx--90">
                    <mxGeometry x="30" width="150" height="30" as="geometry">
                        <mxRectangle width="150" height="30" as="alternateBounds"/>
                    </mxGeometry>
                </mxCell>
                <mxCell id="rqFgS9RomKwqHCibQmx--93" value="histories" style="shape=table;startSize=30;container=1;collapsible=1;childLayout=tableLayout;fixedRows=1;rowLines=0;fontStyle=1;align=center;resizeLast=1;" vertex="1" parent="rqFgS9RomKwqHCibQmx--1">
                    <mxGeometry x="650" y="280" width="180" height="300" as="geometry"/>
                </mxCell>
                <mxCell id="rqFgS9RomKwqHCibQmx--94" value="" style="shape=tableRow;horizontal=0;startSize=0;swimlaneHead=0;swimlaneBody=0;fillColor=none;collapsible=0;dropTarget=0;points=[[0,0.5],[1,0.5]];portConstraint=eastwest;top=0;left=0;right=0;bottom=1;" vertex="1" parent="rqFgS9RomKwqHCibQmx--93">
                    <mxGeometry y="30" width="180" height="30" as="geometry"/>
                </mxCell>
                <mxCell id="rqFgS9RomKwqHCibQmx--95" value="PK" style="shape=partialRectangle;connectable=0;fillColor=none;top=0;left=0;bottom=0;right=0;fontStyle=1;overflow=hidden;" vertex="1" parent="rqFgS9RomKwqHCibQmx--94">
                    <mxGeometry width="30" height="30" as="geometry">
                        <mxRectangle width="30" height="30" as="alternateBounds"/>
                    </mxGeometry>
                </mxCell>
                <mxCell id="rqFgS9RomKwqHCibQmx--96" value="id" style="shape=partialRectangle;connectable=0;fillColor=none;top=0;left=0;bottom=0;right=0;align=left;spacingLeft=6;fontStyle=5;overflow=hidden;" vertex="1" parent="rqFgS9RomKwqHCibQmx--94">
                    <mxGeometry x="30" width="150" height="30" as="geometry">
                        <mxRectangle width="150" height="30" as="alternateBounds"/>
                    </mxGeometry>
                </mxCell>
                <mxCell id="rqFgS9RomKwqHCibQmx--97" value="" style="shape=tableRow;horizontal=0;startSize=0;swimlaneHead=0;swimlaneBody=0;fillColor=none;collapsible=0;dropTarget=0;points=[[0,0.5],[1,0.5]];portConstraint=eastwest;top=0;left=0;right=0;bottom=0;" vertex="1" parent="rqFgS9RomKwqHCibQmx--93">
                    <mxGeometry y="60" width="180" height="30" as="geometry"/>
                </mxCell>
                <mxCell id="rqFgS9RomKwqHCibQmx--98" value="FK" style="shape=partialRectangle;connectable=0;fillColor=none;top=0;left=0;bottom=0;right=0;editable=1;overflow=hidden;" vertex="1" parent="rqFgS9RomKwqHCibQmx--97">
                    <mxGeometry width="30" height="30" as="geometry">
                        <mxRectangle width="30" height="30" as="alternateBounds"/>
                    </mxGeometry>
                </mxCell>
                <mxCell id="rqFgS9RomKwqHCibQmx--99" value="id_user" style="shape=partialRectangle;connectable=0;fillColor=none;top=0;left=0;bottom=0;right=0;align=left;spacingLeft=6;overflow=hidden;" vertex="1" parent="rqFgS9RomKwqHCibQmx--97">
                    <mxGeometry x="30" width="150" height="30" as="geometry">
                        <mxRectangle width="150" height="30" as="alternateBounds"/>
                    </mxGeometry>
                </mxCell>
                <mxCell id="rqFgS9RomKwqHCibQmx--100" value="" style="shape=tableRow;horizontal=0;startSize=0;swimlaneHead=0;swimlaneBody=0;fillColor=none;collapsible=0;dropTarget=0;points=[[0,0.5],[1,0.5]];portConstraint=eastwest;top=0;left=0;right=0;bottom=0;" vertex="1" parent="rqFgS9RomKwqHCibQmx--93">
                    <mxGeometry y="90" width="180" height="30" as="geometry"/>
                </mxCell>
                <mxCell id="rqFgS9RomKwqHCibQmx--101" value="FK" style="shape=partialRectangle;connectable=0;fillColor=none;top=0;left=0;bottom=0;right=0;editable=1;overflow=hidden;" vertex="1" parent="rqFgS9RomKwqHCibQmx--100">
                    <mxGeometry width="30" height="30" as="geometry">
                        <mxRectangle width="30" height="30" as="alternateBounds"/>
                    </mxGeometry>
                </mxCell>
                <mxCell id="rqFgS9RomKwqHCibQmx--102" value="id_vehicle" style="shape=partialRectangle;connectable=0;fillColor=none;top=0;left=0;bottom=0;right=0;align=left;spacingLeft=6;overflow=hidden;" vertex="1" parent="rqFgS9RomKwqHCibQmx--100">
                    <mxGeometry x="30" width="150" height="30" as="geometry">
                        <mxRectangle width="150" height="30" as="alternateBounds"/>
                    </mxGeometry>
                </mxCell>
                <mxCell id="rqFgS9RomKwqHCibQmx--103" value="" style="shape=tableRow;horizontal=0;startSize=0;swimlaneHead=0;swimlaneBody=0;fillColor=none;collapsible=0;dropTarget=0;points=[[0,0.5],[1,0.5]];portConstraint=eastwest;top=0;left=0;right=0;bottom=0;" vertex="1" parent="rqFgS9RomKwqHCibQmx--93">
                    <mxGeometry y="120" width="180" height="30" as="geometry"/>
                </mxCell>
                <mxCell id="rqFgS9RomKwqHCibQmx--104" value="" style="shape=partialRectangle;connectable=0;fillColor=none;top=0;left=0;bottom=0;right=0;editable=1;overflow=hidden;" vertex="1" parent="rqFgS9RomKwqHCibQmx--103">
                    <mxGeometry width="30" height="30" as="geometry">
                        <mxRectangle width="30" height="30" as="alternateBounds"/>
                    </mxGeometry>
                </mxCell>
                <mxCell id="rqFgS9RomKwqHCibQmx--105" value="date_start" style="shape=partialRectangle;connectable=0;fillColor=none;top=0;left=0;bottom=0;right=0;align=left;spacingLeft=6;overflow=hidden;" vertex="1" parent="rqFgS9RomKwqHCibQmx--103">
                    <mxGeometry x="30" width="150" height="30" as="geometry">
                        <mxRectangle width="150" height="30" as="alternateBounds"/>
                    </mxGeometry>
                </mxCell>
                <mxCell id="rqFgS9RomKwqHCibQmx--106" value="" style="shape=tableRow;horizontal=0;startSize=0;swimlaneHead=0;swimlaneBody=0;fillColor=none;collapsible=0;dropTarget=0;points=[[0,0.5],[1,0.5]];portConstraint=eastwest;top=0;left=0;right=0;bottom=0;" vertex="1" parent="rqFgS9RomKwqHCibQmx--93">
                    <mxGeometry y="150" width="180" height="30" as="geometry"/>
                </mxCell>
                <mxCell id="rqFgS9RomKwqHCibQmx--107" value="" style="shape=partialRectangle;connectable=0;fillColor=none;top=0;left=0;bottom=0;right=0;editable=1;overflow=hidden;" vertex="1" parent="rqFgS9RomKwqHCibQmx--106">
                    <mxGeometry width="30" height="30" as="geometry">
                        <mxRectangle width="30" height="30" as="alternateBounds"/>
                    </mxGeometry>
                </mxCell>
                <mxCell id="rqFgS9RomKwqHCibQmx--108" value="date_end" style="shape=partialRectangle;connectable=0;fillColor=none;top=0;left=0;bottom=0;right=0;align=left;spacingLeft=6;overflow=hidden;" vertex="1" parent="rqFgS9RomKwqHCibQmx--106">
                    <mxGeometry x="30" width="150" height="30" as="geometry">
                        <mxRectangle width="150" height="30" as="alternateBounds"/>
                    </mxGeometry>
                </mxCell>
                <mxCell id="rqFgS9RomKwqHCibQmx--109" value="" style="shape=tableRow;horizontal=0;startSize=0;swimlaneHead=0;swimlaneBody=0;fillColor=none;collapsible=0;dropTarget=0;points=[[0,0.5],[1,0.5]];portConstraint=eastwest;top=0;left=0;right=0;bottom=0;" vertex="1" parent="rqFgS9RomKwqHCibQmx--93">
                    <mxGeometry y="180" width="180" height="30" as="geometry"/>
                </mxCell>
                <mxCell id="rqFgS9RomKwqHCibQmx--110" value="" style="shape=partialRectangle;connectable=0;fillColor=none;top=0;left=0;bottom=0;right=0;editable=1;overflow=hidden;" vertex="1" parent="rqFgS9RomKwqHCibQmx--109">
                    <mxGeometry width="30" height="30" as="geometry">
                        <mxRectangle width="30" height="30" as="alternateBounds"/>
                    </mxGeometry>
                </mxCell>
                <mxCell id="rqFgS9RomKwqHCibQmx--111" value="has_returned" style="shape=partialRectangle;connectable=0;fillColor=none;top=0;left=0;bottom=0;right=0;align=left;spacingLeft=6;overflow=hidden;" vertex="1" parent="rqFgS9RomKwqHCibQmx--109">
                    <mxGeometry x="30" width="150" height="30" as="geometry">
                        <mxRectangle width="150" height="30" as="alternateBounds"/>
                    </mxGeometry>
                </mxCell>
                <mxCell id="rqFgS9RomKwqHCibQmx--112" value="" style="shape=tableRow;horizontal=0;startSize=0;swimlaneHead=0;swimlaneBody=0;fillColor=none;collapsible=0;dropTarget=0;points=[[0,0.5],[1,0.5]];portConstraint=eastwest;top=0;left=0;right=0;bottom=0;" vertex="1" parent="rqFgS9RomKwqHCibQmx--93">
                    <mxGeometry y="210" width="180" height="30" as="geometry"/>
                </mxCell>
                <mxCell id="rqFgS9RomKwqHCibQmx--113" value="" style="shape=partialRectangle;connectable=0;fillColor=none;top=0;left=0;bottom=0;right=0;editable=1;overflow=hidden;" vertex="1" parent="rqFgS9RomKwqHCibQmx--112">
                    <mxGeometry width="30" height="30" as="geometry">
                        <mxRectangle width="30" height="30" as="alternateBounds"/>
                    </mxGeometry>
                </mxCell>
                <mxCell id="rqFgS9RomKwqHCibQmx--114" value="prepayment" style="shape=partialRectangle;connectable=0;fillColor=none;top=0;left=0;bottom=0;right=0;align=left;spacingLeft=6;overflow=hidden;" vertex="1" parent="rqFgS9RomKwqHCibQmx--112">
                    <mxGeometry x="30" width="150" height="30" as="geometry">
                        <mxRectangle width="150" height="30" as="alternateBounds"/>
                    </mxGeometry>
                </mxCell>
                <mxCell id="rqFgS9RomKwqHCibQmx--115" value="" style="shape=tableRow;horizontal=0;startSize=0;swimlaneHead=0;swimlaneBody=0;fillColor=none;collapsible=0;dropTarget=0;points=[[0,0.5],[1,0.5]];portConstraint=eastwest;top=0;left=0;right=0;bottom=0;" vertex="1" parent="rqFgS9RomKwqHCibQmx--93">
                    <mxGeometry y="240" width="180" height="30" as="geometry"/>
                </mxCell>
                <mxCell id="rqFgS9RomKwqHCibQmx--116" value="" style="shape=partialRectangle;connectable=0;fillColor=none;top=0;left=0;bottom=0;right=0;editable=1;overflow=hidden;" vertex="1" parent="rqFgS9RomKwqHCibQmx--115">
                    <mxGeometry width="30" height="30" as="geometry">
                        <mxRectangle width="30" height="30" as="alternateBounds"/>
                    </mxGeometry>
                </mxCell>
                <mxCell id="rqFgS9RomKwqHCibQmx--117" value="created_at" style="shape=partialRectangle;connectable=0;fillColor=none;top=0;left=0;bottom=0;right=0;align=left;spacingLeft=6;overflow=hidden;" vertex="1" parent="rqFgS9RomKwqHCibQmx--115">
                    <mxGeometry x="30" width="150" height="30" as="geometry">
                        <mxRectangle width="150" height="30" as="alternateBounds"/>
                    </mxGeometry>
                </mxCell>
                <mxCell id="rqFgS9RomKwqHCibQmx--118" value="" style="shape=tableRow;horizontal=0;startSize=0;swimlaneHead=0;swimlaneBody=0;fillColor=none;collapsible=0;dropTarget=0;points=[[0,0.5],[1,0.5]];portConstraint=eastwest;top=0;left=0;right=0;bottom=0;" vertex="1" parent="rqFgS9RomKwqHCibQmx--93">
                    <mxGeometry y="270" width="180" height="30" as="geometry"/>
                </mxCell>
                <mxCell id="rqFgS9RomKwqHCibQmx--119" value="" style="shape=partialRectangle;connectable=0;fillColor=none;top=0;left=0;bottom=0;right=0;editable=1;overflow=hidden;" vertex="1" parent="rqFgS9RomKwqHCibQmx--118">
                    <mxGeometry width="30" height="30" as="geometry">
                        <mxRectangle width="30" height="30" as="alternateBounds"/>
                    </mxGeometry>
                </mxCell>
                <mxCell id="rqFgS9RomKwqHCibQmx--120" value="updated_at" style="shape=partialRectangle;connectable=0;fillColor=none;top=0;left=0;bottom=0;right=0;align=left;spacingLeft=6;overflow=hidden;" vertex="1" parent="rqFgS9RomKwqHCibQmx--118">
                    <mxGeometry x="30" width="150" height="30" as="geometry">
                        <mxRectangle width="150" height="30" as="alternateBounds"/>
                    </mxGeometry>
                </mxCell>
                <mxCell id="rqFgS9RomKwqHCibQmx--121" style="edgeStyle=orthogonalEdgeStyle;rounded=0;orthogonalLoop=1;jettySize=auto;html=1;startArrow=ERone;startFill=0;endArrow=ERmany;endFill=0;" edge="1" parent="rqFgS9RomKwqHCibQmx--1" source="rqFgS9RomKwqHCibQmx--3" target="rqFgS9RomKwqHCibQmx--100">
                    <mxGeometry relative="1" as="geometry"/>
                </mxCell>
                <mxCell id="rqFgS9RomKwqHCibQmx--122" style="edgeStyle=orthogonalEdgeStyle;rounded=0;orthogonalLoop=1;jettySize=auto;html=1;startArrow=ERone;startFill=0;endArrow=ERmany;endFill=0;" edge="1" parent="rqFgS9RomKwqHCibQmx--1" source="rqFgS9RomKwqHCibQmx--57" target="rqFgS9RomKwqHCibQmx--97">
                    <mxGeometry relative="1" as="geometry"/>
                </mxCell>
            </root>
        </mxGraphModel>
    </diagram>
</mxfile>